<svg version="1.1" xmlns="http://www.w3.org/2000/svg" xmlns:xlink="http://www.w3.org/1999/xlink" width="832.94970703125" height="446"><defs/><g><g transform="translate(-126,-54) scale(1,1)"><rect fill="#C0C0C0" stroke="none" x="615" y="71" width="331.65771484375" height="207" opacity="0.2"/></g><g transform="translate(-126,-54) scale(1,1)"><rect fill="#ffffff" stroke="none" x="608" y="64" width="331.65771484375" height="207"/></g><g transform="translate(-126,-54) scale(1,1)"><path fill="none" stroke="#000000" d="M 608 64 L 939.65771484375 64 L 939.65771484375 271 L 608 271 L 608 64 Z Z" stroke-miterlimit="10"/></g><g transform="translate(-126,-54) scale(1,1)"><path fill="none" stroke="#000000" d="M 608 89 L 939.65771484375 89" stroke-miterlimit="10"/></g><g transform="translate(-126,-54) scale(1,1)"><path fill="none" stroke="#000000" d="M 608 99 L 939.65771484375 99" stroke-miterlimit="10"/></g><g transform="translate(-126,-54) scale(1,1)"><g><path fill="none" stroke="none"/><text fill="#000000" stroke="none" font-family="Arial" font-size="13px" font-style="normal" font-weight="bold" text-decoration="none" x="735.171630859375" y="83.5">FactoryAgent</text></g></g><g transform="translate(-126,-54) scale(1,1)"><g><path fill="none" stroke="none"/><text fill="#000000" stroke="none" font-family="Arial" font-size="13px" font-style="normal" font-weight="normal" text-decoration="none" x="613" y="116.5">+createPacmanBasic(position: PositionAgent): Agent</text><path fill="none" stroke="#000000" d="M 613 116.5 L 918.3095703125 116.5" stroke-miterlimit="10"/></g></g><g transform="translate(-126,-54) scale(1,1)"><g><path fill="none" stroke="none"/><text fill="#000000" stroke="none" font-family="Arial" font-size="13px" font-style="normal" font-weight="normal" text-decoration="none" x="613" y="131.5">+createPacmanNone(position: PositionAgent): Agent</text><path fill="none" stroke="#000000" d="M 613 131.5 L 917.5986328125 131.5" stroke-miterlimit="10"/></g></g><g transform="translate(-126,-54) scale(1,1)"><g><path fill="none" stroke="none"/><text fill="#000000" stroke="none" font-family="Arial" font-size="13px" font-style="normal" font-weight="normal" text-decoration="none" x="613" y="146.5">+createGhostBasic(position: PositionAgent): Agent</text><path fill="none" stroke="#000000" d="M 613 146.5 L 905.30322265625 146.5" stroke-miterlimit="10"/></g></g><g transform="translate(-126,-54) scale(1,1)"><g><path fill="none" stroke="none"/><text fill="#000000" stroke="none" font-family="Arial" font-size="13px" font-style="normal" font-weight="normal" text-decoration="none" x="613" y="161.5">+createGhostNone(position: PositionAgent): Agent</text><path fill="none" stroke="#000000" d="M 613 161.5 L 904.59228515625 161.5" stroke-miterlimit="10"/></g></g><g transform="translate(-126,-54) scale(1,1)"><g><path fill="none" stroke="none"/><text fill="#000000" stroke="none" font-family="Arial" font-size="13px" font-style="normal" font-weight="normal" text-decoration="none" x="613" y="176.5">+createPacmanPlayer(position: PositionAgent): Agent</text><path fill="none" stroke="#000000" d="M 613 176.5 L 923.36865234375 176.5" stroke-miterlimit="10"/></g></g><g transform="translate(-126,-54) scale(1,1)"><g><path fill="none" stroke="none"/><text fill="#000000" stroke="none" font-family="Arial" font-size="13px" font-style="normal" font-weight="normal" text-decoration="none" x="613" y="191.5">+createGhostPlayer(position: PositionAgent): Agent</text><path fill="none" stroke="#000000" d="M 613 191.5 L 910.3623046875 191.5" stroke-miterlimit="10"/></g></g><g transform="translate(-126,-54) scale(1,1)"><g><path fill="none" stroke="none"/><text fill="#000000" stroke="none" font-family="Arial" font-size="13px" font-style="normal" font-weight="normal" text-decoration="none" x="613" y="206.5">+createPacmanRandom(position: PositionAgent): Agent</text><path fill="none" stroke="#000000" d="M 613 206.5 L 935.65771484375 206.5" stroke-miterlimit="10"/></g></g><g transform="translate(-126,-54) scale(1,1)"><g><path fill="none" stroke="none"/><text fill="#000000" stroke="none" font-family="Arial" font-size="13px" font-style="normal" font-weight="normal" text-decoration="none" x="613" y="221.5">+createGhostRandom(position: PositionAgent): Agent</text><path fill="none" stroke="#000000" d="M 613 221.5 L 922.6513671875 221.5" stroke-miterlimit="10"/></g></g><g transform="translate(-126,-54) scale(1,1)"><g><path fill="none" stroke="none"/><text fill="#000000" stroke="none" font-family="Arial" font-size="13px" font-style="normal" font-weight="normal" text-decoration="none" x="613" y="236.5">+createPacmanAstar(position: PositionAgent): Agent</text><path fill="none" stroke="#000000" d="M 613 236.5 L 916.8623046875 236.5" stroke-miterlimit="10"/></g></g><g transform="translate(-126,-54) scale(1,1)"><g><path fill="none" stroke="none"/><text fill="#000000" stroke="none" font-family="Arial" font-size="13px" font-style="normal" font-weight="normal" text-decoration="none" x="613" y="251.5">+createGhostTracking(position: PositionAgent): Agent</text><path fill="none" stroke="#000000" d="M 613 251.5 L 922.8798828125 251.5" stroke-miterlimit="10"/></g></g><g transform="translate(-126,-54) scale(1,1)"><g><path fill="none" stroke="none"/><text fill="#000000" stroke="none" font-family="Arial" font-size="13px" font-style="normal" font-weight="normal" text-decoration="none" x="613" y="266.5">+createGhostAstar(position: PositionAgent): Agent</text><path fill="none" stroke="#000000" d="M 613 266.5 L 903.85595703125 266.5" stroke-miterlimit="10"/></g></g><g transform="translate(-126,-54) scale(1,1)"><rect fill="#C0C0C0" stroke="none" x="431" y="247" width="97.10546875" height="44" opacity="0.2"/></g><g transform="translate(-126,-54) scale(1,1)"><rect fill="#ffffff" stroke="none" x="424" y="240" width="97.10546875" height="44"/></g><g transform="translate(-126,-54) scale(1,1)"><path fill="none" stroke="#000000" d="M 424 240 L 521.10546875 240 L 521.10546875 284 L 424 284 L 424 240 Z Z" stroke-miterlimit="10"/></g><g transform="translate(-126,-54) scale(1,1)"><path fill="none" stroke="#000000" d="M 424 265 L 521.10546875 265" stroke-miterlimit="10"/></g><g transform="translate(-126,-54) scale(1,1)"><path fill="none" stroke="#000000" d="M 424 275 L 521.10546875 275" stroke-miterlimit="10"/></g><g transform="translate(-126,-54) scale(1,1)"><g><path fill="none" stroke="none"/><text fill="#000000" stroke="none" font-family="Arial" font-size="13px" font-style="normal" font-weight="bold" text-decoration="none" x="455.56640625" y="259.5">Agent</text></g></g><g transform="translate(-126,-54) scale(1,1)"><rect fill="#C0C0C0" stroke="none" x="143" y="71" width="199.43603515625" height="220" opacity="0.2"/></g><g transform="translate(-126,-54) scale(1,1)"><rect fill="#ffffff" stroke="none" x="136" y="64" width="199.43603515625" height="220"/></g><g transform="translate(-126,-54) scale(1,1)"><path fill="none" stroke="#000000" d="M 136 64 L 335.43603515625 64 L 335.43603515625 284 L 136 284 L 136 64 Z Z" stroke-miterlimit="10"/></g><g transform="translate(-126,-54) scale(1,1)"><path fill="none" stroke="#000000" d="M 136 89 L 335.43603515625 89" stroke-miterlimit="10"/></g><g transform="translate(-126,-54) scale(1,1)"><path fill="none" stroke="#000000" d="M 136 142 L 335.43603515625 142" stroke-miterlimit="10"/></g><g transform="translate(-126,-54) scale(1,1)"><g><path fill="none" stroke="none"/><text fill="#000000" stroke="none" font-family="Arial" font-size="13px" font-style="normal" font-weight="bold" text-decoration="none" x="195.607177734375" y="83.5">PositionAgent</text></g></g><g transform="translate(-126,-54) scale(1,1)"><g><path fill="none" stroke="none"/><text fill="#000000" stroke="none" font-family="Arial" font-size="13px" font-style="normal" font-weight="normal" text-decoration="none" x="141" y="106.5">-x: int</text></g></g><g transform="translate(-126,-54) scale(1,1)"><g><path fill="none" stroke="none"/><text fill="#000000" stroke="none" font-family="Arial" font-size="13px" font-style="normal" font-weight="normal" text-decoration="none" x="141" y="121.5">-y: int</text></g></g><g transform="translate(-126,-54) scale(1,1)"><g><path fill="none" stroke="none"/><text fill="#000000" stroke="none" font-family="Arial" font-size="13px" font-style="normal" font-weight="normal" text-decoration="none" x="141" y="136.5">-dir: Dir</text></g></g><g transform="translate(-126,-54) scale(1,1)"><g><path fill="none" stroke="none"/><text fill="#000000" stroke="none" font-family="Arial" font-size="13px" font-style="normal" font-weight="normal" text-decoration="none" x="141" y="159.5">+equals(obj: Object): boolean</text></g></g><g transform="translate(-126,-54) scale(1,1)"><g><path fill="none" stroke="none"/><text fill="#000000" stroke="none" font-family="Arial" font-size="13px" font-style="normal" font-weight="normal" text-decoration="none" x="141" y="174.5">+near(p: PositionAgent): boolean</text></g></g><g transform="translate(-126,-54) scale(1,1)"><g><path fill="none" stroke="none"/><text fill="#000000" stroke="none" font-family="Arial" font-size="13px" font-style="normal" font-weight="normal" text-decoration="none" x="141" y="189.5">+getX(): int</text></g></g><g transform="translate(-126,-54) scale(1,1)"><g><path fill="none" stroke="none"/><text fill="#000000" stroke="none" font-family="Arial" font-size="13px" font-style="normal" font-weight="normal" text-decoration="none" x="141" y="204.5">+getY(): int</text></g></g><g transform="translate(-126,-54) scale(1,1)"><g><path fill="none" stroke="none"/><text fill="#000000" stroke="none" font-family="Arial" font-size="13px" font-style="normal" font-weight="normal" text-decoration="none" x="141" y="219.5">+getDir(): Dir</text></g></g><g transform="translate(-126,-54) scale(1,1)"><g><path fill="none" stroke="none"/><text fill="#000000" stroke="none" font-family="Arial" font-size="13px" font-style="normal" font-weight="normal" text-decoration="none" x="141" y="234.5">+updateDir(p: PositionAgent)</text></g></g><g transform="translate(-126,-54) scale(1,1)"><g><path fill="none" stroke="none"/><text fill="#000000" stroke="none" font-family="Arial" font-size="13px" font-style="normal" font-weight="normal" text-decoration="none" x="141" y="249.5">+setX(x)</text></g></g><g transform="translate(-126,-54) scale(1,1)"><g><path fill="none" stroke="none"/><text fill="#000000" stroke="none" font-family="Arial" font-size="13px" font-style="normal" font-weight="normal" text-decoration="none" x="141" y="264.5">+setY(y)</text></g></g><g transform="translate(-126,-54) scale(1,1)"><g><path fill="none" stroke="none"/><text fill="#000000" stroke="none" font-family="Arial" font-size="13px" font-style="normal" font-weight="normal" text-decoration="none" x="141" y="279.5">+setDir(dir: Dir)</text></g></g><g transform="translate(-126,-54) scale(1,1)"><rect fill="#C0C0C0" stroke="none" x="143" y="367" width="812.94970703125" height="130" opacity="0.2"/></g><g transform="translate(-126,-54) scale(1,1)"><rect fill="#ffffff" stroke="none" x="136" y="360" width="812.94970703125" height="130"/></g><g transform="translate(-126,-54) scale(1,1)"><path fill="none" stroke="#000000" d="M 136 360 L 948.94970703125 360 L 948.94970703125 490 L 136 490 L 136 360 Z Z" stroke-miterlimit="10"/></g><g transform="translate(-126,-54) scale(1,1)"><path fill="none" stroke="#000000" d="M 136 398 L 948.94970703125 398" stroke-miterlimit="10"/></g><g transform="translate(-126,-54) scale(1,1)"><path fill="none" stroke="#000000" d="M 136 408 L 948.94970703125 408" stroke-miterlimit="10"/></g><g transform="translate(-126,-54) scale(1,1)"><g><path fill="none" stroke="none"/><text fill="#000000" stroke="none" font-family="Arial" font-size="13px" font-style="normal" font-weight="normal" text-decoration="none" x="509.95263671875" y="377.5">«Interface»</text></g></g><g transform="translate(-126,-54) scale(1,1)"><g><path fill="none" stroke="none"/><text fill="#000000" stroke="none" font-family="Arial" font-size="13px" font-style="normal" font-weight="bold" text-decoration="none" x="507.423095703125" y="392.5">AgentAction</text></g></g><g transform="translate(-126,-54) scale(1,1)"><g><path fill="none" stroke="none"/><text fill="#000000" stroke="none" font-family="Arial" font-size="13px" font-style="normal" font-weight="normal" text-decoration="none" x="141" y="425.5">+move(positionPacmans: List&lt;PositionAgent&gt;, positionGhosts: List&lt;PositionAgent&gt;, positionFoods: List&lt;PositionAgent&gt;, walls: boolean[][])</text></g></g><g transform="translate(-126,-54) scale(1,1)"><g><path fill="none" stroke="none"/><text fill="#000000" stroke="none" font-family="Arial" font-size="13px" font-style="normal" font-weight="normal" text-decoration="none" x="141" y="440.5">+goUp()</text></g></g><g transform="translate(-126,-54) scale(1,1)"><g><path fill="none" stroke="none"/><text fill="#000000" stroke="none" font-family="Arial" font-size="13px" font-style="normal" font-weight="normal" text-decoration="none" x="141" y="455.5">+goLeft()</text></g></g><g transform="translate(-126,-54) scale(1,1)"><g><path fill="none" stroke="none"/><text fill="#000000" stroke="none" font-family="Arial" font-size="13px" font-style="normal" font-weight="normal" text-decoration="none" x="141" y="470.5">+goDown()</text></g></g><g transform="translate(-126,-54) scale(1,1)"><g><path fill="none" stroke="none"/><text fill="#000000" stroke="none" font-family="Arial" font-size="13px" font-style="normal" font-weight="normal" text-decoration="none" x="141" y="485.5">+goRight()</text></g></g><g transform="translate(-126,-54) scale(1,1)"><path fill="none" stroke="#000000" d="M 608 217 L 335 217" stroke-miterlimit="10" stroke-dasharray="3"/></g><g transform="translate(-126,-54) scale(1,1)"><path fill="none" stroke="#000000" d="M 345.16267485762415 212.790482243984 L 335 217 L 345.16267485762415 221.209517756016" stroke-miterlimit="10"/></g><g transform="translate(-126,-54) scale(1,1)"><path fill="none" stroke="#000000" d="M 608 262 L 521 262" stroke-miterlimit="10" stroke-dasharray="3"/></g><g transform="translate(-126,-54) scale(1,1)"><path fill="none" stroke="#000000" d="M 531.1626748576241 257.790482243984 L 521 262 L 531.1626748576241 266.209517756016" stroke-miterlimit="10"/></g><g transform="translate(-126,-54) scale(1,1)"><path fill="none" stroke="#000000" d="M 392 360 L 392 174 L 335 174" stroke-miterlimit="10" stroke-dasharray="3"/></g><g transform="translate(-126,-54) scale(1,1)"><path fill="none" stroke="#000000" d="M 345.16267485762415 169.790482243984 L 335 174 L 345.16267485762415 178.209517756016" stroke-miterlimit="10"/></g><g transform="translate(-126,-54) scale(1,1)"><path fill="none" stroke="#000000" d="M 482 284 L 482 360" stroke-miterlimit="10"/></g><g transform="translate(-126,-54) scale(1,1)"><path fill="#FFFFFF" stroke="none" d="M 477.790482243984 349.83732514237585 L 482 360 L 486.209517756016 349.83732514237585 L 482 338"/></g><g transform="translate(-126,-54) scale(1,1)"><path fill="none" stroke="#000000" d="M 477.790482243984 349.83732514237585 L 482 360 L 486.209517756016 349.83732514237585 L 482 338 L 477.790482243984 349.83732514237585" stroke-miterlimit="10"/></g></g></svg>