<svg version="1.1" xmlns="http://www.w3.org/2000/svg" xmlns:xlink="http://www.w3.org/1999/xlink" width="1027.75537109375" height="637"><defs/><g><g transform="translate(-54,-110) scale(1,1)"><rect fill="#C0C0C0" stroke="none" x="111" y="375" width="322.19970703125" height="130" opacity="0.2"/></g><g transform="translate(-54,-110) scale(1,1)"><rect fill="#ffffff" stroke="none" x="104" y="368" width="322.19970703125" height="130"/></g><g transform="translate(-54,-110) scale(1,1)"><path fill="none" stroke="#000000" d="M 104 368 L 426.19970703125 368 L 426.19970703125 498 L 104 498 L 104 368 Z Z" stroke-miterlimit="10"/></g><g transform="translate(-54,-110) scale(1,1)"><path fill="none" stroke="#000000" d="M 104 408 L 426.19970703125 408" stroke-miterlimit="10"/></g><g transform="translate(-54,-110) scale(1,1)"><path fill="none" stroke="#000000" d="M 104 446 L 426.19970703125 446" stroke-miterlimit="10"/></g><g transform="translate(-54,-110) scale(1,1)"><g><path fill="none" stroke="none"/><text fill="#000000" stroke="none" font-family="Arial" font-size="13px" font-style="normal" font-weight="bold" text-decoration="none" x="233.42822265625" y="387.5">ViewGame</text></g></g><g transform="translate(-54,-110) scale(1,1)"><g><path fill="none" stroke="none"/><text fill="#000000" stroke="none" font-family="Arial" font-size="13px" font-style="normal" font-weight="normal" text-decoration="none" x="231.99365234375" y="402.5">(from View)</text></g></g><g transform="translate(-54,-110) scale(1,1)"><g><path fill="none" stroke="none"/><text fill="#000000" stroke="none" font-family="Arial" font-size="13px" font-style="normal" font-weight="normal" text-decoration="none" x="109" y="425.5">-game: Game</text></g></g><g transform="translate(-54,-110) scale(1,1)"><g><path fill="none" stroke="none"/><text fill="#000000" stroke="none" font-family="Arial" font-size="13px" font-style="normal" font-weight="normal" text-decoration="none" x="109" y="440.5">-controller: GameController</text></g></g><g transform="translate(-54,-110) scale(1,1)"><g><path fill="none" stroke="none"/><text fill="#000000" stroke="none" font-family="Arial" font-size="13px" font-style="normal" font-weight="normal" text-decoration="none" x="109" y="463.5">+update()</text></g></g><g transform="translate(-54,-110) scale(1,1)"><g><path fill="none" stroke="none"/><text fill="#000000" stroke="none" font-family="Arial" font-size="13px" font-style="normal" font-weight="normal" text-decoration="none" x="109" y="478.5">+setGameController(gameController: GameController)</text></g></g><g transform="translate(-54,-110) scale(1,1)"><g><path fill="none" stroke="none"/><text fill="#000000" stroke="none" font-family="Arial" font-size="13px" font-style="normal" font-weight="normal" text-decoration="none" x="109" y="493.5">+keyPressed(keyEvent: KeyEvent)</text></g></g><g transform="translate(-54,-110) scale(1,1)"><rect fill="#C0C0C0" stroke="none" x="111" y="151" width="75.21240234375" height="85" opacity="0.2"/></g><g transform="translate(-54,-110) scale(1,1)"><rect fill="#ffffff" stroke="none" x="104" y="144" width="75.21240234375" height="85"/></g><g transform="translate(-54,-110) scale(1,1)"><path fill="none" stroke="#000000" d="M 104 144 L 179.21240234375 144 L 179.21240234375 229 L 104 229 L 104 144 Z Z" stroke-miterlimit="10"/></g><g transform="translate(-54,-110) scale(1,1)"><path fill="none" stroke="#000000" d="M 104 197 L 179.21240234375 197" stroke-miterlimit="10"/></g><g transform="translate(-54,-110) scale(1,1)"><path fill="none" stroke="#000000" d="M 104 207 L 179.21240234375 207" stroke-miterlimit="10"/></g><g transform="translate(-54,-110) scale(1,1)"><g><path fill="none" stroke="none"/><text fill="#000000" stroke="none" font-family="Arial" font-size="13px" font-style="normal" font-weight="normal" text-decoration="none" x="109.083984375" y="161.5">«Interface»</text></g></g><g transform="translate(-54,-110) scale(1,1)"><g><path fill="none" stroke="none"/><text fill="#000000" stroke="none" font-family="Arial" font-size="13px" font-style="italic" font-weight="bold" text-decoration="none" x="127.635009765625" y="176.5">View</text></g></g><g transform="translate(-54,-110) scale(1,1)"><g><path fill="none" stroke="none"/><text fill="#000000" stroke="none" font-family="Arial" font-size="13px" font-style="normal" font-weight="normal" text-decoration="none" x="108.5" y="191.5">(from View)</text></g></g><g transform="translate(-54,-110) scale(1,1)"><g><path fill="none" stroke="none"/><text fill="#000000" stroke="none" font-family="Arial" font-size="13px" font-style="normal" font-weight="normal" text-decoration="none" x="109" y="224.5">+update()</text></g></g><g transform="translate(-54,-110) scale(1,1)"><path fill="none" stroke="#000000" d="M 104 392 L 64 392 L 64 184 L 104 184" stroke-miterlimit="10"/></g><g transform="translate(-54,-110) scale(1,1)"><path fill="#FFFFFF" stroke="none" d="M 93.83732514237585 188.209517756016 L 104 184 L 93.83732514237585 179.790482243984 L 82 184"/></g><g transform="translate(-54,-110) scale(1,1)"><path fill="none" stroke="#000000" d="M 93.83732514237585 188.209517756016 L 104 184 L 93.83732514237585 179.790482243984 L 82 184 L 93.83732514237585 188.209517756016" stroke-miterlimit="10"/></g><g transform="translate(-54,-110) scale(1,1)"><rect fill="#C0C0C0" stroke="none" x="911" y="271" width="157.712890625" height="310" opacity="0.2"/></g><g transform="translate(-54,-110) scale(1,1)"><rect fill="#ffffff" stroke="none" x="904" y="264" width="157.712890625" height="310"/></g><g transform="translate(-54,-110) scale(1,1)"><path fill="none" stroke="#000000" d="M 904 264 L 1061.712890625 264 L 1061.712890625 574 L 904 574 L 904 264 Z Z" stroke-miterlimit="10"/></g><g transform="translate(-54,-110) scale(1,1)"><path fill="none" stroke="#000000" d="M 904 304 L 1061.712890625 304" stroke-miterlimit="10"/></g><g transform="translate(-54,-110) scale(1,1)"><path fill="none" stroke="#000000" d="M 904 387 L 1061.712890625 387" stroke-miterlimit="10"/></g><g transform="translate(-54,-110) scale(1,1)"><g><path fill="none" stroke="none"/><text fill="#000000" stroke="none" font-family="Arial" font-size="13px" font-style="normal" font-weight="bold" text-decoration="none" x="965.156005859375" y="283.5">Game</text></g></g><g transform="translate(-54,-110) scale(1,1)"><g><path fill="none" stroke="none"/><text fill="#000000" stroke="none" font-family="Arial" font-size="13px" font-style="normal" font-weight="normal" text-decoration="none" x="946.017822265625" y="298.5">(from Model)</text></g></g><g transform="translate(-54,-110) scale(1,1)"><g><path fill="none" stroke="none"/><text fill="#000000" stroke="none" font-family="Arial" font-size="13px" font-style="normal" font-weight="normal" text-decoration="none" x="909" y="321.5">-views: List&lt;View&gt;</text></g></g><g transform="translate(-54,-110) scale(1,1)"><g><path fill="none" stroke="none"/><text fill="#000000" stroke="none" font-family="Arial" font-size="13px" font-style="normal" font-weight="normal" text-decoration="none" x="909" y="336.5">-isRunning: boolean</text></g></g><g transform="translate(-54,-110) scale(1,1)"><g><path fill="none" stroke="none"/><text fill="#000000" stroke="none" font-family="Arial" font-size="13px" font-style="normal" font-weight="normal" text-decoration="none" x="909" y="351.5">-time: int</text></g></g><g transform="translate(-54,-110) scale(1,1)"><g><path fill="none" stroke="none"/><text fill="#000000" stroke="none" font-family="Arial" font-size="13px" font-style="normal" font-weight="normal" text-decoration="none" x="909" y="366.5">-nbTurn: int</text></g></g><g transform="translate(-54,-110) scale(1,1)"><g><path fill="none" stroke="none"/><text fill="#000000" stroke="none" font-family="Arial" font-size="13px" font-style="normal" font-weight="normal" text-decoration="none" x="909" y="381.5">-maxTurn: int</text></g></g><g transform="translate(-54,-110) scale(1,1)"><g><path fill="none" stroke="none"/><text fill="#000000" stroke="none" font-family="Arial" font-size="13px" font-style="normal" font-weight="normal" text-decoration="none" x="909" y="404.5">+addView(view: View)</text></g></g><g transform="translate(-54,-110) scale(1,1)"><g><path fill="none" stroke="none"/><text fill="#000000" stroke="none" font-family="Arial" font-size="13px" font-style="normal" font-weight="normal" text-decoration="none" x="909" y="419.5">+removeView(view: View)</text></g></g><g transform="translate(-54,-110) scale(1,1)"><g><path fill="none" stroke="none"/><text fill="#000000" stroke="none" font-family="Arial" font-size="13px" font-style="normal" font-weight="normal" text-decoration="none" x="909" y="434.5">+notifyViews()</text></g></g><g transform="translate(-54,-110) scale(1,1)"><g><path fill="none" stroke="none"/><text fill="#000000" stroke="none" font-family="Arial" font-size="13px" font-style="normal" font-weight="normal" text-decoration="none" x="909" y="449.5">+launch()</text></g></g><g transform="translate(-54,-110) scale(1,1)"><g><path fill="none" stroke="none"/><text fill="#000000" stroke="none" font-family="Arial" font-size="13px" font-style="normal" font-weight="normal" text-decoration="none" x="909" y="464.5">+restart()</text></g></g><g transform="translate(-54,-110) scale(1,1)"><g><path fill="none" stroke="none"/><text fill="#000000" stroke="none" font-family="Arial" font-size="13px" font-style="normal" font-weight="normal" text-decoration="none" x="909" y="479.5">+run()</text></g></g><g transform="translate(-54,-110) scale(1,1)"><g><path fill="none" stroke="none"/><text fill="#000000" stroke="none" font-family="Arial" font-size="13px" font-style="normal" font-weight="normal" text-decoration="none" x="909" y="494.5">+init()</text></g></g><g transform="translate(-54,-110) scale(1,1)"><g><path fill="none" stroke="none"/><text fill="#000000" stroke="none" font-family="Arial" font-size="13px" font-style="italic" font-weight="normal" text-decoration="none" x="909" y="509.5">+initializeGame()</text></g></g><g transform="translate(-54,-110) scale(1,1)"><g><path fill="none" stroke="none"/><text fill="#000000" stroke="none" font-family="Arial" font-size="13px" font-style="normal" font-weight="normal" text-decoration="none" x="909" y="524.5">+step()</text></g></g><g transform="translate(-54,-110) scale(1,1)"><g><path fill="none" stroke="none"/><text fill="#000000" stroke="none" font-family="Arial" font-size="13px" font-style="italic" font-weight="normal" text-decoration="none" x="909" y="539.5">+takeTurn()</text></g></g><g transform="translate(-54,-110) scale(1,1)"><g><path fill="none" stroke="none"/><text fill="#000000" stroke="none" font-family="Arial" font-size="13px" font-style="italic" font-weight="normal" text-decoration="none" x="909" y="554.5">+gameOver()</text></g></g><g transform="translate(-54,-110) scale(1,1)"><g><path fill="none" stroke="none"/><text fill="#000000" stroke="none" font-family="Arial" font-size="13px" font-style="normal" font-weight="normal" text-decoration="none" x="909" y="569.5">+stop()</text></g></g><g transform="translate(-54,-110) scale(1,1)"><rect fill="#C0C0C0" stroke="none" x="991" y="647" width="87.75537109375" height="59" opacity="0.2"/></g><g transform="translate(-54,-110) scale(1,1)"><rect fill="#ffffff" stroke="none" x="984" y="640" width="87.75537109375" height="59"/></g><g transform="translate(-54,-110) scale(1,1)"><path fill="none" stroke="#000000" d="M 984 640 L 1071.75537109375 640 L 1071.75537109375 699 L 984 699 L 984 640 Z Z" stroke-miterlimit="10"/></g><g transform="translate(-54,-110) scale(1,1)"><path fill="none" stroke="#000000" d="M 984 680 L 1071.75537109375 680" stroke-miterlimit="10"/></g><g transform="translate(-54,-110) scale(1,1)"><path fill="none" stroke="#000000" d="M 984 690 L 1071.75537109375 690" stroke-miterlimit="10"/></g><g transform="translate(-54,-110) scale(1,1)"><g><path fill="none" stroke="none"/><text fill="#000000" stroke="none" font-family="Arial" font-size="13px" font-style="normal" font-weight="bold" text-decoration="none" x="990.30908203125" y="659.5">SimpleGame</text></g></g><g transform="translate(-54,-110) scale(1,1)"><g><path fill="none" stroke="none"/><text fill="#000000" stroke="none" font-family="Arial" font-size="13px" font-style="normal" font-weight="normal" text-decoration="none" x="991.0390625" y="674.5">(from Model)</text></g></g><g transform="translate(-54,-110) scale(1,1)"><path fill="none" stroke="#000000" d="M 1020 640 L 1020 574" stroke-miterlimit="10"/></g><g transform="translate(-54,-110) scale(1,1)"><path fill="#FFFFFF" stroke="none" d="M 1024.2095177560159 584.1626748576241 L 1020 574 L 1015.790482243984 584.1626748576241 L 1020 596"/></g><g transform="translate(-54,-110) scale(1,1)"><path fill="none" stroke="#000000" d="M 1024.2095177560159 584.1626748576241 L 1020 574 L 1015.790482243984 584.1626748576241 L 1020 596 L 1024.2095177560159 584.1626748576241" stroke-miterlimit="10"/></g><g transform="translate(-54,-110) scale(1,1)"><rect fill="#C0C0C0" stroke="none" x="887" y="647" width="94.99169921875" height="59" opacity="0.2"/></g><g transform="translate(-54,-110) scale(1,1)"><rect fill="#ffffff" stroke="none" x="880" y="640" width="94.99169921875" height="59"/></g><g transform="translate(-54,-110) scale(1,1)"><path fill="none" stroke="#000000" d="M 880 640 L 974.99169921875 640 L 974.99169921875 699 L 880 699 L 880 640 Z Z" stroke-miterlimit="10"/></g><g transform="translate(-54,-110) scale(1,1)"><path fill="none" stroke="#000000" d="M 880 680 L 974.99169921875 680" stroke-miterlimit="10"/></g><g transform="translate(-54,-110) scale(1,1)"><path fill="none" stroke="#000000" d="M 880 690 L 974.99169921875 690" stroke-miterlimit="10"/></g><g transform="translate(-54,-110) scale(1,1)"><g><path fill="none" stroke="none"/><text fill="#000000" stroke="none" font-family="Arial" font-size="13px" font-style="normal" font-weight="bold" text-decoration="none" x="885.950439453125" y="659.5">PacmanGame</text></g></g><g transform="translate(-54,-110) scale(1,1)"><g><path fill="none" stroke="none"/><text fill="#000000" stroke="none" font-family="Arial" font-size="13px" font-style="normal" font-weight="normal" text-decoration="none" x="890.6572265625" y="674.5">(from Model)</text></g></g><g transform="translate(-54,-110) scale(1,1)"><path fill="none" stroke="#000000" d="M 948 640 L 948 574" stroke-miterlimit="10"/></g><g transform="translate(-54,-110) scale(1,1)"><path fill="#FFFFFF" stroke="none" d="M 952.209517756016 584.1626748576241 L 948 574 L 943.790482243984 584.1626748576241 L 948 596"/></g><g transform="translate(-54,-110) scale(1,1)"><path fill="none" stroke="#000000" d="M 952.209517756016 584.1626748576241 L 948 574 L 943.790482243984 584.1626748576241 L 948 596 L 952.209517756016 584.1626748576241" stroke-miterlimit="10"/></g><g transform="translate(-54,-110) scale(1,1)"><rect fill="#C0C0C0" stroke="none" x="551" y="311" width="169.037109375" height="160" opacity="0.2"/></g><g transform="translate(-54,-110) scale(1,1)"><rect fill="#ffffff" stroke="none" x="544" y="304" width="169.037109375" height="160"/></g><g transform="translate(-54,-110) scale(1,1)"><path fill="none" stroke="#000000" d="M 544 304 L 713.037109375 304 L 713.037109375 464 L 544 464 L 544 304 Z Z" stroke-miterlimit="10"/></g><g transform="translate(-54,-110) scale(1,1)"><path fill="none" stroke="#000000" d="M 544 357 L 713.037109375 357" stroke-miterlimit="10"/></g><g transform="translate(-54,-110) scale(1,1)"><path fill="none" stroke="#000000" d="M 544 367 L 713.037109375 367" stroke-miterlimit="10"/></g><g transform="translate(-54,-110) scale(1,1)"><g><path fill="none" stroke="none"/><text fill="#000000" stroke="none" font-family="Arial" font-size="13px" font-style="normal" font-weight="normal" text-decoration="none" x="595.996337890625" y="321.5">«Interface»</text></g></g><g transform="translate(-54,-110) scale(1,1)"><g><path fill="none" stroke="none"/><text fill="#000000" stroke="none" font-family="Arial" font-size="13px" font-style="normal" font-weight="bold" text-decoration="none" x="582.640869140625" y="336.5">GameController</text></g></g><g transform="translate(-54,-110) scale(1,1)"><g><path fill="none" stroke="none"/><text fill="#000000" stroke="none" font-family="Arial" font-size="13px" font-style="normal" font-weight="normal" text-decoration="none" x="581.206298828125" y="351.5">(from Controller)</text></g></g><g transform="translate(-54,-110) scale(1,1)"><g><path fill="none" stroke="none"/><text fill="#000000" stroke="none" font-family="Arial" font-size="13px" font-style="normal" font-weight="normal" text-decoration="none" x="549" y="384.5">+pause()</text></g></g><g transform="translate(-54,-110) scale(1,1)"><g><path fill="none" stroke="none"/><text fill="#000000" stroke="none" font-family="Arial" font-size="13px" font-style="normal" font-weight="normal" text-decoration="none" x="549" y="399.5">+restart()</text></g></g><g transform="translate(-54,-110) scale(1,1)"><g><path fill="none" stroke="none"/><text fill="#000000" stroke="none" font-family="Arial" font-size="13px" font-style="normal" font-weight="normal" text-decoration="none" x="549" y="414.5">+run()</text></g></g><g transform="translate(-54,-110) scale(1,1)"><g><path fill="none" stroke="none"/><text fill="#000000" stroke="none" font-family="Arial" font-size="13px" font-style="normal" font-weight="normal" text-decoration="none" x="549" y="429.5">+step()</text></g></g><g transform="translate(-54,-110) scale(1,1)"><g><path fill="none" stroke="none"/><text fill="#000000" stroke="none" font-family="Arial" font-size="13px" font-style="normal" font-weight="normal" text-decoration="none" x="549" y="444.5">+movePlayer1(dir: Dir)</text></g></g><g transform="translate(-54,-110) scale(1,1)"><g><path fill="none" stroke="none"/><text fill="#000000" stroke="none" font-family="Arial" font-size="13px" font-style="normal" font-weight="normal" text-decoration="none" x="549" y="459.5">+movePlayer2(dir: Dir)</text></g></g><g transform="translate(-54,-110) scale(1,1)"><rect fill="#C0C0C0" stroke="none" x="447" y="495" width="168.65625" height="160" opacity="0.2"/></g><g transform="translate(-54,-110) scale(1,1)"><rect fill="#ffffff" stroke="none" x="440" y="488" width="168.65625" height="160"/></g><g transform="translate(-54,-110) scale(1,1)"><path fill="none" stroke="#000000" d="M 440 488 L 608.65625 488 L 608.65625 648 L 440 648 L 440 488 Z Z" stroke-miterlimit="10"/></g><g transform="translate(-54,-110) scale(1,1)"><path fill="none" stroke="#000000" d="M 440 528 L 608.65625 528" stroke-miterlimit="10"/></g><g transform="translate(-54,-110) scale(1,1)"><path fill="none" stroke="#000000" d="M 440 551 L 608.65625 551" stroke-miterlimit="10"/></g><g transform="translate(-54,-110) scale(1,1)"><g><path fill="none" stroke="none"/><text fill="#000000" stroke="none" font-family="Arial" font-size="13px" font-style="normal" font-weight="bold" text-decoration="none" x="458.582275390625" y="507.5">SimpleGameController</text></g></g><g transform="translate(-54,-110) scale(1,1)"><g><path fill="none" stroke="none"/><text fill="#000000" stroke="none" font-family="Arial" font-size="13px" font-style="normal" font-weight="normal" text-decoration="none" x="477.015869140625" y="522.5">(from Controller)</text></g></g><g transform="translate(-54,-110) scale(1,1)"><g><path fill="none" stroke="none"/><text fill="#000000" stroke="none" font-family="Arial" font-size="13px" font-style="normal" font-weight="normal" text-decoration="none" x="445" y="545.5">-simpleGame: SimpleGame</text></g></g><g transform="translate(-54,-110) scale(1,1)"><g><path fill="none" stroke="none"/><text fill="#000000" stroke="none" font-family="Arial" font-size="13px" font-style="normal" font-weight="normal" text-decoration="none" x="445" y="568.5">+pause()</text></g></g><g transform="translate(-54,-110) scale(1,1)"><g><path fill="none" stroke="none"/><text fill="#000000" stroke="none" font-family="Arial" font-size="13px" font-style="normal" font-weight="normal" text-decoration="none" x="445" y="583.5">+restart()</text></g></g><g transform="translate(-54,-110) scale(1,1)"><g><path fill="none" stroke="none"/><text fill="#000000" stroke="none" font-family="Arial" font-size="13px" font-style="normal" font-weight="normal" text-decoration="none" x="445" y="598.5">+run()</text></g></g><g transform="translate(-54,-110) scale(1,1)"><g><path fill="none" stroke="none"/><text fill="#000000" stroke="none" font-family="Arial" font-size="13px" font-style="normal" font-weight="normal" text-decoration="none" x="445" y="613.5">+step()</text></g></g><g transform="translate(-54,-110) scale(1,1)"><g><path fill="none" stroke="none"/><text fill="#000000" stroke="none" font-family="Arial" font-size="13px" font-style="normal" font-weight="normal" text-decoration="none" x="445" y="628.5">+movePlayer1(dir: Dir)</text></g></g><g transform="translate(-54,-110) scale(1,1)"><g><path fill="none" stroke="none"/><text fill="#000000" stroke="none" font-family="Arial" font-size="13px" font-style="normal" font-weight="normal" text-decoration="none" x="445" y="643.5">+movePlayer2(dir: Dir)</text></g></g><g transform="translate(-54,-110) scale(1,1)"><path fill="none" stroke="#000000" d="M 574 488 L 574 464" stroke-miterlimit="10"/></g><g transform="translate(-54,-110) scale(1,1)"><path fill="#FFFFFF" stroke="none" d="M 578.209517756016 474.16267485762415 L 574 464 L 569.790482243984 474.16267485762415 L 574 486"/></g><g transform="translate(-54,-110) scale(1,1)"><path fill="none" stroke="#000000" d="M 578.209517756016 474.16267485762415 L 574 464 L 569.790482243984 474.16267485762415 L 574 486 L 578.209517756016 474.16267485762415" stroke-miterlimit="10"/></g><g transform="translate(-54,-110) scale(1,1)"><rect fill="#C0C0C0" stroke="none" x="911" y="127" width="157.712890625" height="115" opacity="0.2"/></g><g transform="translate(-54,-110) scale(1,1)"><rect fill="#ffffff" stroke="none" x="904" y="120" width="157.712890625" height="115"/></g><g transform="translate(-54,-110) scale(1,1)"><path fill="none" stroke="#000000" d="M 904 120 L 1061.712890625 120 L 1061.712890625 235 L 904 235 L 904 120 Z Z" stroke-miterlimit="10"/></g><g transform="translate(-54,-110) scale(1,1)"><path fill="none" stroke="#000000" d="M 904 173 L 1061.712890625 173" stroke-miterlimit="10"/></g><g transform="translate(-54,-110) scale(1,1)"><path fill="none" stroke="#000000" d="M 904 183 L 1061.712890625 183" stroke-miterlimit="10"/></g><g transform="translate(-54,-110) scale(1,1)"><g><path fill="none" stroke="none"/><text fill="#000000" stroke="none" font-family="Arial" font-size="13px" font-style="normal" font-weight="normal" text-decoration="none" x="950.334228515625" y="137.5">«Interface»</text></g></g><g transform="translate(-54,-110) scale(1,1)"><g><path fill="none" stroke="none"/><text fill="#000000" stroke="none" font-family="Arial" font-size="13px" font-style="normal" font-weight="bold" text-decoration="none" x="965.15283203125" y="152.5">Model</text></g></g><g transform="translate(-54,-110) scale(1,1)"><g><path fill="none" stroke="none"/><text fill="#000000" stroke="none" font-family="Arial" font-size="13px" font-style="normal" font-weight="normal" text-decoration="none" x="946.017822265625" y="167.5">(from Model)</text></g></g><g transform="translate(-54,-110) scale(1,1)"><g><path fill="none" stroke="none"/><text fill="#000000" stroke="none" font-family="Arial" font-size="13px" font-style="normal" font-weight="normal" text-decoration="none" x="909" y="200.5">+addView(view: View)</text></g></g><g transform="translate(-54,-110) scale(1,1)"><g><path fill="none" stroke="none"/><text fill="#000000" stroke="none" font-family="Arial" font-size="13px" font-style="normal" font-weight="normal" text-decoration="none" x="909" y="215.5">+removeView(view: View)</text></g></g><g transform="translate(-54,-110) scale(1,1)"><g><path fill="none" stroke="none"/><text fill="#000000" stroke="none" font-family="Arial" font-size="13px" font-style="normal" font-weight="normal" text-decoration="none" x="909" y="230.5">+notifyViews()</text></g></g><g transform="translate(-54,-110) scale(1,1)"><path fill="none" stroke="#000000" d="M 982 263 L 982 236" stroke-miterlimit="10"/></g><g transform="translate(-54,-110) scale(1,1)"><path fill="#FFFFFF" stroke="none" d="M 986.209517756016 246.16267485762415 L 982 236 L 977.790482243984 246.16267485762415 L 982 258"/></g><g transform="translate(-54,-110) scale(1,1)"><path fill="none" stroke="#000000" d="M 986.209517756016 246.16267485762415 L 982 236 L 977.790482243984 246.16267485762415 L 982 258 L 986.209517756016 246.16267485762415" stroke-miterlimit="10"/></g><g transform="translate(-54,-110) scale(1,1)"><rect fill="#C0C0C0" stroke="none" x="623" y="495" width="185.29345703125" height="160" opacity="0.2"/></g><g transform="translate(-54,-110) scale(1,1)"><rect fill="#ffffff" stroke="none" x="616" y="488" width="185.29345703125" height="160"/></g><g transform="translate(-54,-110) scale(1,1)"><path fill="none" stroke="#000000" d="M 616 488 L 801.29345703125 488 L 801.29345703125 648 L 616 648 L 616 488 Z Z" stroke-miterlimit="10"/></g><g transform="translate(-54,-110) scale(1,1)"><path fill="none" stroke="#000000" d="M 616 528 L 801.29345703125 528" stroke-miterlimit="10"/></g><g transform="translate(-54,-110) scale(1,1)"><path fill="none" stroke="#000000" d="M 616 551 L 801.29345703125 551" stroke-miterlimit="10"/></g><g transform="translate(-54,-110) scale(1,1)"><g><path fill="none" stroke="none"/><text fill="#000000" stroke="none" font-family="Arial" font-size="13px" font-style="normal" font-weight="bold" text-decoration="none" x="638.924072265625" y="507.5">PacmanGameController</text></g></g><g transform="translate(-54,-110) scale(1,1)"><g><path fill="none" stroke="none"/><text fill="#000000" stroke="none" font-family="Arial" font-size="13px" font-style="normal" font-weight="normal" text-decoration="none" x="661.33447265625" y="522.5">(from Controller)</text></g></g><g transform="translate(-54,-110) scale(1,1)"><g><path fill="none" stroke="none"/><text fill="#000000" stroke="none" font-family="Arial" font-size="13px" font-style="normal" font-weight="normal" text-decoration="none" x="621" y="545.5">-pacmanGame: PacmanGame</text></g></g><g transform="translate(-54,-110) scale(1,1)"><g><path fill="none" stroke="none"/><text fill="#000000" stroke="none" font-family="Arial" font-size="13px" font-style="normal" font-weight="normal" text-decoration="none" x="621" y="568.5">+pause()</text></g></g><g transform="translate(-54,-110) scale(1,1)"><g><path fill="none" stroke="none"/><text fill="#000000" stroke="none" font-family="Arial" font-size="13px" font-style="normal" font-weight="normal" text-decoration="none" x="621" y="583.5">+restart()</text></g></g><g transform="translate(-54,-110) scale(1,1)"><g><path fill="none" stroke="none"/><text fill="#000000" stroke="none" font-family="Arial" font-size="13px" font-style="normal" font-weight="normal" text-decoration="none" x="621" y="598.5">+run()</text></g></g><g transform="translate(-54,-110) scale(1,1)"><g><path fill="none" stroke="none"/><text fill="#000000" stroke="none" font-family="Arial" font-size="13px" font-style="normal" font-weight="normal" text-decoration="none" x="621" y="613.5">+step()</text></g></g><g transform="translate(-54,-110) scale(1,1)"><g><path fill="none" stroke="none"/><text fill="#000000" stroke="none" font-family="Arial" font-size="13px" font-style="normal" font-weight="normal" text-decoration="none" x="621" y="628.5">+movePlayer1(dir: Dir)</text></g></g><g transform="translate(-54,-110) scale(1,1)"><g><path fill="none" stroke="none"/><text fill="#000000" stroke="none" font-family="Arial" font-size="13px" font-style="normal" font-weight="normal" text-decoration="none" x="621" y="643.5">+movePlayer2(dir: Dir)</text></g></g><g transform="translate(-54,-110) scale(1,1)"><path fill="none" stroke="#000000" d="M 659 488 L 659 464" stroke-miterlimit="10"/></g><g transform="translate(-54,-110) scale(1,1)"><path fill="#FFFFFF" stroke="none" d="M 663.209517756016 474.16267485762415 L 659 464 L 654.790482243984 474.16267485762415 L 659 486"/></g><g transform="translate(-54,-110) scale(1,1)"><path fill="none" stroke="#000000" d="M 663.209517756016 474.16267485762415 L 659 464 L 654.790482243984 474.16267485762415 L 659 486 L 663.209517756016 474.16267485762415" stroke-miterlimit="10"/></g><g transform="translate(-54,-110) scale(1,1)"><path fill="none" stroke="#000000" d="M 708 648 L 708 664 L 880 664" stroke-miterlimit="10"/></g><g transform="translate(-54,-110) scale(1,1)"><path fill="#000000" stroke="none" d="M 869.8373251423759 668.209517756016 L 880 664 L 869.8373251423758 659.790482243984 L 858 664"/></g><g transform="translate(-54,-110) scale(1,1)"><path fill="none" stroke="#000000" d="M 869.8373251423759 668.209517756016 L 880 664 L 869.8373251423758 659.790482243984 L 858 664 L 869.8373251423759 668.209517756016" stroke-miterlimit="10"/></g><g transform="translate(-54,-110) scale(1,1)"><path fill="none" stroke="#000000" d="M 520 648 L 520 736 L 1019 736 L 1019 699" stroke-miterlimit="10"/></g><g transform="translate(-54,-110) scale(1,1)"><path fill="#000000" stroke="none" d="M 1023.209517756016 709.1626748576241 L 1019 699 L 1014.790482243984 709.1626748576241 L 1019 721"/></g><g transform="translate(-54,-110) scale(1,1)"><path fill="none" stroke="#000000" d="M 1023.209517756016 709.1626748576241 L 1019 699 L 1014.790482243984 709.1626748576241 L 1019 721 L 1023.209517756016 709.1626748576241" stroke-miterlimit="10"/></g><g transform="translate(-54,-110) scale(1,1)"><rect fill="#C0C0C0" stroke="none" x="111" y="255" width="322.19970703125" height="115" opacity="0.2"/></g><g transform="translate(-54,-110) scale(1,1)"><rect fill="#ffffff" stroke="none" x="104" y="248" width="322.19970703125" height="115"/></g><g transform="translate(-54,-110) scale(1,1)"><path fill="none" stroke="#000000" d="M 104 248 L 426.19970703125 248 L 426.19970703125 363 L 104 363 L 104 248 Z Z" stroke-miterlimit="10"/></g><g transform="translate(-54,-110) scale(1,1)"><path fill="none" stroke="#000000" d="M 104 288 L 426.19970703125 288" stroke-miterlimit="10"/></g><g transform="translate(-54,-110) scale(1,1)"><path fill="none" stroke="#000000" d="M 104 326 L 426.19970703125 326" stroke-miterlimit="10"/></g><g transform="translate(-54,-110) scale(1,1)"><g><path fill="none" stroke="none"/><text fill="#000000" stroke="none" font-family="Arial" font-size="13px" font-style="normal" font-weight="bold" text-decoration="none" x="217.530517578125" y="267.5">ViewCommande</text></g></g><g transform="translate(-54,-110) scale(1,1)"><g><path fill="none" stroke="none"/><text fill="#000000" stroke="none" font-family="Arial" font-size="13px" font-style="normal" font-weight="normal" text-decoration="none" x="231.99365234375" y="282.5">(from View)</text></g></g><g transform="translate(-54,-110) scale(1,1)"><g><path fill="none" stroke="none"/><text fill="#000000" stroke="none" font-family="Arial" font-size="13px" font-style="normal" font-weight="normal" text-decoration="none" x="109" y="305.5">-game: Game</text></g></g><g transform="translate(-54,-110) scale(1,1)"><g><path fill="none" stroke="none"/><text fill="#000000" stroke="none" font-family="Arial" font-size="13px" font-style="normal" font-weight="normal" text-decoration="none" x="109" y="320.5">-controller: GameController</text></g></g><g transform="translate(-54,-110) scale(1,1)"><g><path fill="none" stroke="none"/><text fill="#000000" stroke="none" font-family="Arial" font-size="13px" font-style="normal" font-weight="normal" text-decoration="none" x="109" y="343.5">+update()</text></g></g><g transform="translate(-54,-110) scale(1,1)"><g><path fill="none" stroke="none"/><text fill="#000000" stroke="none" font-family="Arial" font-size="13px" font-style="normal" font-weight="normal" text-decoration="none" x="109" y="358.5">+setGameController(gameController: GameController)</text></g></g><g transform="translate(-54,-110) scale(1,1)"><path fill="none" stroke="#000000" d="M 104 272 L 80 272 L 80 208 L 104 208" stroke-miterlimit="10"/></g><g transform="translate(-54,-110) scale(1,1)"><path fill="#FFFFFF" stroke="none" d="M 93.83732514237585 212.209517756016 L 104 208 L 93.83732514237585 203.790482243984 L 82 208"/></g><g transform="translate(-54,-110) scale(1,1)"><path fill="none" stroke="#000000" d="M 93.83732514237585 212.209517756016 L 104 208 L 93.83732514237585 203.790482243984 L 82 208 L 93.83732514237585 212.209517756016" stroke-miterlimit="10"/></g><g transform="translate(-54,-110) scale(1,1)"><path fill="none" stroke="#000000" d="M 426 312 L 544 312" stroke-miterlimit="10"/></g><g transform="translate(-54,-110) scale(1,1)"><path fill="#000000" stroke="none" d="M 533.8373251423759 316.209517756016 L 544 312 L 533.8373251423758 307.790482243984 L 522 312"/></g><g transform="translate(-54,-110) scale(1,1)"><path fill="none" stroke="#000000" d="M 533.8373251423759 316.209517756016 L 544 312 L 533.8373251423758 307.790482243984 L 522 312 L 533.8373251423759 316.209517756016" stroke-miterlimit="10"/></g><g transform="translate(-54,-110) scale(1,1)"><path fill="none" stroke="#000000" d="M 426 392 L 544 392" stroke-miterlimit="10"/></g><g transform="translate(-54,-110) scale(1,1)"><path fill="#000000" stroke="none" d="M 533.8373251423759 396.209517756016 L 544 392 L 533.8373251423758 387.790482243984 L 522 392"/></g><g transform="translate(-54,-110) scale(1,1)"><path fill="none" stroke="#000000" d="M 533.8373251423759 396.209517756016 L 544 392 L 533.8373251423758 387.790482243984 L 522 392 L 533.8373251423759 396.209517756016" stroke-miterlimit="10"/></g><g transform="translate(-54,-110) scale(1,1)"><path fill="none" stroke="#000000" d="M 426 376 L 464 376 L 464 288 L 904 288" stroke-miterlimit="10"/></g><g transform="translate(-54,-110) scale(1,1)"><path fill="#000000" stroke="none" d="M 893.8373251423759 292.209517756016 L 904 288 L 893.8373251423758 283.790482243984 L 882 288"/></g><g transform="translate(-54,-110) scale(1,1)"><path fill="none" stroke="#000000" d="M 893.8373251423759 292.209517756016 L 904 288 L 893.8373251423758 283.790482243984 L 882 288 L 893.8373251423759 292.209517756016" stroke-miterlimit="10"/></g><g transform="translate(-54,-110) scale(1,1)"><path fill="none" stroke="#000000" d="M 426 272 L 904 272" stroke-miterlimit="10"/></g><g transform="translate(-54,-110) scale(1,1)"><path fill="#000000" stroke="none" d="M 893.8373251423759 276.209517756016 L 904 272 L 893.8373251423758 267.790482243984 L 882 272"/></g><g transform="translate(-54,-110) scale(1,1)"><path fill="none" stroke="#000000" d="M 893.8373251423759 276.209517756016 L 904 272 L 893.8373251423758 267.790482243984 L 882 272 L 893.8373251423759 276.209517756016" stroke-miterlimit="10"/></g><g transform="translate(-54,-110) scale(1,1)"><path fill="#C0C0C0" stroke="none" d="M 189.2099609375 554.5 C 189.2099609375 548.1487248 194.3586857375 543 200.7099609375 543 C 207.0612361375 543 212.2099609375 548.1487248 212.2099609375 554.5 C 212.2099609375 560.8512752 207.0612361375 566 200.7099609375 566 C 194.3586857375 566 189.2099609375 560.8512752 189.2099609375 554.5 Z" opacity="0.2"/></g><g transform="translate(-54,-110) scale(1,1)"><path fill="#ffffff" stroke="none" d="M 182.2099609375 547.5 C 182.2099609375 541.1487248 187.3586857375 536 193.7099609375 536 C 200.0612361375 536 205.2099609375 541.1487248 205.2099609375 547.5 C 205.2099609375 553.8512752 200.0612361375 559 193.7099609375 559 C 187.3586857375 559 182.2099609375 553.8512752 182.2099609375 547.5 Z"/></g><g transform="translate(-54,-110) scale(1,1)"><path fill="none" stroke="#000000" d="M 182.2099609375 547.5 C 182.2099609375 541.1487248 187.3586857375 536 193.7099609375 536 C 200.0612361375 536 205.2099609375 541.1487248 205.2099609375 547.5 C 205.2099609375 553.8512752 200.0612361375 559 193.7099609375 559 C 187.3586857375 559 182.2099609375 553.8512752 182.2099609375 547.5 Z" stroke-miterlimit="10"/></g><g transform="translate(-54,-110) scale(1,1)"><g><path fill="none" stroke="none"/><text fill="#000000" stroke="none" font-family="Arial" font-size="13px" font-style="normal" font-weight="bold" text-decoration="none" x="159.385009765625" y="578.5">KeyListener</text></g></g><g transform="translate(-54,-110) scale(1,1)"><path fill="none" stroke="#000000" d="M 193 498 L 193 536" stroke-miterlimit="10"/></g><g transform="translate(-54,-110) scale(1,1)"><path fill="none" stroke="#000000" d="M 904 186 L 179 186" stroke-miterlimit="10" stroke-dasharray="3"/></g><g transform="translate(-54,-110) scale(1,1)"><path fill="none" stroke="#000000" d="M 189.16267485762415 181.790482243984 L 179 186 L 189.16267485762415 190.209517756016" stroke-miterlimit="10"/></g></g></svg>