<svg version="1.1" xmlns="http://www.w3.org/2000/svg" xmlns:xlink="http://www.w3.org/1999/xlink" width="926.89501953125" height="424"><defs/><g><g transform="translate(-86,-86) scale(1,1)"><rect fill="#C0C0C0" stroke="none" x="103" y="103" width="906.89501953125" height="130" opacity="0.2"/></g><g transform="translate(-86,-86) scale(1,1)"><rect fill="#ffffff" stroke="none" x="96" y="96" width="906.89501953125" height="130"/></g><g transform="translate(-86,-86) scale(1,1)"><path fill="none" stroke="#000000" d="M 96 96 L 1002.89501953125 96 L 1002.89501953125 226 L 96 226 L 96 96 Z Z" stroke-miterlimit="10"/></g><g transform="translate(-86,-86) scale(1,1)"><path fill="none" stroke="#000000" d="M 96 134 L 1002.89501953125 134" stroke-miterlimit="10"/></g><g transform="translate(-86,-86) scale(1,1)"><path fill="none" stroke="#000000" d="M 96 144 L 1002.89501953125 144" stroke-miterlimit="10"/></g><g transform="translate(-86,-86) scale(1,1)"><g><path fill="none" stroke="none"/><text fill="#000000" stroke="none" font-family="Arial" font-size="13px" font-style="normal" font-weight="normal" text-decoration="none" x="516.92529296875" y="113.5">«Interface»</text></g></g><g transform="translate(-86,-86) scale(1,1)"><g><path fill="none" stroke="none"/><text fill="#000000" stroke="none" font-family="Arial" font-size="13px" font-style="normal" font-weight="bold" text-decoration="none" x="534.270263671875" y="128.5">State</text></g></g><g transform="translate(-86,-86) scale(1,1)"><g><path fill="none" stroke="none"/><text fill="#000000" stroke="none" font-family="Arial" font-size="13px" font-style="normal" font-weight="normal" text-decoration="none" x="101" y="161.5">+action(positionPacmans: List&lt;PositionAgent&gt;, positionGhosts: List&lt;PositionAgent&gt;, positionFoods: List&lt;PositionAgent&gt;, walls: boolean[][])</text></g></g><g transform="translate(-86,-86) scale(1,1)"><g><path fill="none" stroke="none"/><text fill="#000000" stroke="none" font-family="Arial" font-size="13px" font-style="normal" font-weight="normal" text-decoration="none" x="101" y="176.5">+vulnerability()</text></g></g><g transform="translate(-86,-86) scale(1,1)"><g><path fill="none" stroke="none"/><text fill="#000000" stroke="none" font-family="Arial" font-size="13px" font-style="normal" font-weight="normal" text-decoration="none" x="101" y="191.5">+isDeath(): boolean</text></g></g><g transform="translate(-86,-86) scale(1,1)"><g><path fill="none" stroke="none"/><text fill="#000000" stroke="none" font-family="Arial" font-size="13px" font-style="normal" font-weight="normal" text-decoration="none" x="101" y="206.5">+isLife(): boolean</text></g></g><g transform="translate(-86,-86) scale(1,1)"><g><path fill="none" stroke="none"/><text fill="#000000" stroke="none" font-family="Arial" font-size="13px" font-style="normal" font-weight="normal" text-decoration="none" x="101" y="221.5">+isVulnerable(): boolean</text></g></g><g transform="translate(-86,-86) scale(1,1)"><rect fill="#C0C0C0" stroke="none" x="391" y="287" width="143.89404296875" height="100" opacity="0.2"/></g><g transform="translate(-86,-86) scale(1,1)"><rect fill="#ffffff" stroke="none" x="384" y="280" width="143.89404296875" height="100"/></g><g transform="translate(-86,-86) scale(1,1)"><path fill="none" stroke="#000000" d="M 384 280 L 527.89404296875 280 L 527.89404296875 380 L 384 380 L 384 280 Z Z" stroke-miterlimit="10"/></g><g transform="translate(-86,-86) scale(1,1)"><path fill="none" stroke="#000000" d="M 384 305 L 527.89404296875 305" stroke-miterlimit="10"/></g><g transform="translate(-86,-86) scale(1,1)"><path fill="none" stroke="#000000" d="M 384 358 L 527.89404296875 358" stroke-miterlimit="10"/></g><g transform="translate(-86,-86) scale(1,1)"><g><path fill="none" stroke="none"/><text fill="#000000" stroke="none" font-family="Arial" font-size="13px" font-style="normal" font-weight="bold" text-decoration="none" x="438.60205078125" y="299.5">Death</text></g></g><g transform="translate(-86,-86) scale(1,1)"><g><path fill="none" stroke="none"/><text fill="#000000" stroke="none" font-family="Arial" font-size="13px" font-style="normal" font-weight="normal" text-decoration="none" x="389" y="322.5">-endTurnDeath: int</text><path fill="none" stroke="#000000" d="M 389 322.5 L 496.91015625 322.5" stroke-miterlimit="10"/></g></g><g transform="translate(-86,-86) scale(1,1)"><g><path fill="none" stroke="none"/><text fill="#000000" stroke="none" font-family="Arial" font-size="13px" font-style="normal" font-weight="normal" text-decoration="none" x="389" y="337.5">-nbTurnDeath: int</text></g></g><g transform="translate(-86,-86) scale(1,1)"><g><path fill="none" stroke="none"/><text fill="#000000" stroke="none" font-family="Arial" font-size="13px" font-style="normal" font-weight="normal" text-decoration="none" x="389" y="352.5">-agent: Agent</text></g></g><g transform="translate(-86,-86) scale(1,1)"><g><path fill="none" stroke="none"/><text fill="#000000" stroke="none" font-family="Arial" font-size="13px" font-style="normal" font-weight="normal" text-decoration="none" x="389" y="375.5">+resetTurnDeath()</text></g></g><g transform="translate(-86,-86) scale(1,1)"><rect fill="#C0C0C0" stroke="none" x="655" y="287" width="87.05712890625" height="57" opacity="0.2"/></g><g transform="translate(-86,-86) scale(1,1)"><rect fill="#ffffff" stroke="none" x="648" y="280" width="87.05712890625" height="57"/></g><g transform="translate(-86,-86) scale(1,1)"><path fill="none" stroke="#000000" d="M 648 280 L 735.05712890625 280 L 735.05712890625 337 L 648 337 L 648 280 Z Z" stroke-miterlimit="10"/></g><g transform="translate(-86,-86) scale(1,1)"><path fill="none" stroke="#000000" d="M 648 305 L 735.05712890625 305" stroke-miterlimit="10"/></g><g transform="translate(-86,-86) scale(1,1)"><path fill="none" stroke="#000000" d="M 648 328 L 735.05712890625 328" stroke-miterlimit="10"/></g><g transform="translate(-86,-86) scale(1,1)"><g><path fill="none" stroke="none"/><text fill="#000000" stroke="none" font-family="Arial" font-size="13px" font-style="normal" font-weight="bold" text-decoration="none" x="681.048583984375" y="299.5">Life</text></g></g><g transform="translate(-86,-86) scale(1,1)"><g><path fill="none" stroke="none"/><text fill="#000000" stroke="none" font-family="Arial" font-size="13px" font-style="normal" font-weight="normal" text-decoration="none" x="653" y="322.5">-agent: Agent</text></g></g><g transform="translate(-86,-86) scale(1,1)"><rect fill="#C0C0C0" stroke="none" x="863" y="287" width="143.89404296875" height="100" opacity="0.2"/></g><g transform="translate(-86,-86) scale(1,1)"><rect fill="#ffffff" stroke="none" x="856" y="280" width="143.89404296875" height="100"/></g><g transform="translate(-86,-86) scale(1,1)"><path fill="none" stroke="#000000" d="M 856 280 L 999.89404296875 280 L 999.89404296875 380 L 856 380 L 856 280 Z Z" stroke-miterlimit="10"/></g><g transform="translate(-86,-86) scale(1,1)"><path fill="none" stroke="#000000" d="M 856 305 L 999.89404296875 305" stroke-miterlimit="10"/></g><g transform="translate(-86,-86) scale(1,1)"><path fill="none" stroke="#000000" d="M 856 358 L 999.89404296875 358" stroke-miterlimit="10"/></g><g transform="translate(-86,-86) scale(1,1)"><g><path fill="none" stroke="none"/><text fill="#000000" stroke="none" font-family="Arial" font-size="13px" font-style="normal" font-weight="bold" text-decoration="none" x="897.110107421875" y="299.5">Vulnerable</text></g></g><g transform="translate(-86,-86) scale(1,1)"><g><path fill="none" stroke="none"/><text fill="#000000" stroke="none" font-family="Arial" font-size="13px" font-style="normal" font-weight="normal" text-decoration="none" x="861" y="322.5">-endTurnVulnerable: int</text><path fill="none" stroke="#000000" d="M 861 322.5 L 995.89404296875 322.5" stroke-miterlimit="10"/></g></g><g transform="translate(-86,-86) scale(1,1)"><g><path fill="none" stroke="none"/><text fill="#000000" stroke="none" font-family="Arial" font-size="13px" font-style="normal" font-weight="normal" text-decoration="none" x="861" y="337.5">-nbTurnVulnerable: int</text></g></g><g transform="translate(-86,-86) scale(1,1)"><g><path fill="none" stroke="none"/><text fill="#000000" stroke="none" font-family="Arial" font-size="13px" font-style="normal" font-weight="normal" text-decoration="none" x="861" y="352.5">-agent: Agent</text></g></g><g transform="translate(-86,-86) scale(1,1)"><g><path fill="none" stroke="none"/><text fill="#000000" stroke="none" font-family="Arial" font-size="13px" font-style="normal" font-weight="normal" text-decoration="none" x="861" y="375.5">+resetTurnVulnerable()</text></g></g><g transform="translate(-86,-86) scale(1,1)"><path fill="none" stroke="#000000" d="M 456 280 L 456 226" stroke-miterlimit="10"/></g><g transform="translate(-86,-86) scale(1,1)"><path fill="#FFFFFF" stroke="none" d="M 460.209517756016 236.16267485762415 L 456 226 L 451.790482243984 236.16267485762415 L 456 248"/></g><g transform="translate(-86,-86) scale(1,1)"><path fill="none" stroke="#000000" d="M 460.209517756016 236.16267485762415 L 456 226 L 451.790482243984 236.16267485762415 L 456 248 L 460.209517756016 236.16267485762415" stroke-miterlimit="10"/></g><g transform="translate(-86,-86) scale(1,1)"><path fill="none" stroke="#000000" d="M 688 280 L 688 226" stroke-miterlimit="10"/></g><g transform="translate(-86,-86) scale(1,1)"><path fill="#FFFFFF" stroke="none" d="M 692.209517756016 236.16267485762415 L 688 226 L 683.790482243984 236.16267485762415 L 688 248"/></g><g transform="translate(-86,-86) scale(1,1)"><path fill="none" stroke="#000000" d="M 692.209517756016 236.16267485762415 L 688 226 L 683.790482243984 236.16267485762415 L 688 248 L 692.209517756016 236.16267485762415" stroke-miterlimit="10"/></g><g transform="translate(-86,-86) scale(1,1)"><path fill="none" stroke="#000000" d="M 928 280 L 928 226" stroke-miterlimit="10"/></g><g transform="translate(-86,-86) scale(1,1)"><path fill="#FFFFFF" stroke="none" d="M 932.209517756016 236.16267485762415 L 928 226 L 923.790482243984 236.16267485762415 L 928 248"/></g><g transform="translate(-86,-86) scale(1,1)"><path fill="none" stroke="#000000" d="M 932.209517756016 236.16267485762415 L 928 226 L 923.790482243984 236.16267485762415 L 928 248 L 932.209517756016 236.16267485762415" stroke-miterlimit="10"/></g><g transform="translate(-86,-86) scale(1,1)"><rect fill="#C0C0C0" stroke="none" x="103" y="287" width="222.5224609375" height="220" opacity="0.2"/></g><g transform="translate(-86,-86) scale(1,1)"><rect fill="#ffffff" stroke="none" x="96" y="280" width="222.5224609375" height="220"/></g><g transform="translate(-86,-86) scale(1,1)"><path fill="none" stroke="#000000" d="M 96 280 L 318.5224609375 280 L 318.5224609375 500 L 96 500 L 96 280 Z Z" stroke-miterlimit="10"/></g><g transform="translate(-86,-86) scale(1,1)"><path fill="none" stroke="#000000" d="M 96 305 L 318.5224609375 305" stroke-miterlimit="10"/></g><g transform="translate(-86,-86) scale(1,1)"><path fill="none" stroke="#000000" d="M 96 373 L 318.5224609375 373" stroke-miterlimit="10"/></g><g transform="translate(-86,-86) scale(1,1)"><g><path fill="none" stroke="none"/><text fill="#000000" stroke="none" font-family="Arial" font-size="13px" font-style="normal" font-weight="bold" text-decoration="none" x="190.27490234375" y="299.5">Agent</text></g></g><g transform="translate(-86,-86) scale(1,1)"><g><path fill="none" stroke="none"/><text fill="#000000" stroke="none" font-family="Arial" font-size="13px" font-style="normal" font-weight="normal" text-decoration="none" x="101" y="322.5">-vunerable: Vunerable</text></g></g><g transform="translate(-86,-86) scale(1,1)"><g><path fill="none" stroke="none"/><text fill="#000000" stroke="none" font-family="Arial" font-size="13px" font-style="normal" font-weight="normal" text-decoration="none" x="101" y="337.5">-life: Life</text></g></g><g transform="translate(-86,-86) scale(1,1)"><g><path fill="none" stroke="none"/><text fill="#000000" stroke="none" font-family="Arial" font-size="13px" font-style="normal" font-weight="normal" text-decoration="none" x="101" y="352.5">-death: Death</text></g></g><g transform="translate(-86,-86) scale(1,1)"><g><path fill="none" stroke="none"/><text fill="#000000" stroke="none" font-family="Arial" font-size="13px" font-style="normal" font-weight="normal" text-decoration="none" x="101" y="367.5">-currentState: State</text></g></g><g transform="translate(-86,-86) scale(1,1)"><g><path fill="none" stroke="none"/><text fill="#000000" stroke="none" font-family="Arial" font-size="13px" font-style="normal" font-weight="normal" text-decoration="none" x="101" y="390.5">+vulnerability()</text></g></g><g transform="translate(-86,-86) scale(1,1)"><g><path fill="none" stroke="none"/><text fill="#000000" stroke="none" font-family="Arial" font-size="13px" font-style="normal" font-weight="normal" text-decoration="none" x="101" y="405.5">+isDeath(): boolean</text></g></g><g transform="translate(-86,-86) scale(1,1)"><g><path fill="none" stroke="none"/><text fill="#000000" stroke="none" font-family="Arial" font-size="13px" font-style="normal" font-weight="normal" text-decoration="none" x="101" y="420.5">+isLife(): boolean</text></g></g><g transform="translate(-86,-86) scale(1,1)"><g><path fill="none" stroke="none"/><text fill="#000000" stroke="none" font-family="Arial" font-size="13px" font-style="normal" font-weight="normal" text-decoration="none" x="101" y="435.5">+isVulnerable(): boolean</text></g></g><g transform="translate(-86,-86) scale(1,1)"><g><path fill="none" stroke="none"/><text fill="#000000" stroke="none" font-family="Arial" font-size="13px" font-style="normal" font-weight="normal" text-decoration="none" x="101" y="450.5">+alive()</text></g></g><g transform="translate(-86,-86) scale(1,1)"><g><path fill="none" stroke="none"/><text fill="#000000" stroke="none" font-family="Arial" font-size="13px" font-style="normal" font-weight="normal" text-decoration="none" x="101" y="465.5">+dead()</text></g></g><g transform="translate(-86,-86) scale(1,1)"><g><path fill="none" stroke="none"/><text fill="#000000" stroke="none" font-family="Arial" font-size="13px" font-style="normal" font-weight="normal" text-decoration="none" x="101" y="480.5">+inversion()</text></g></g><g transform="translate(-86,-86) scale(1,1)"><g><path fill="none" stroke="none"/><text fill="#000000" stroke="none" font-family="Arial" font-size="13px" font-style="normal" font-weight="normal" text-decoration="none" x="101" y="495.5">+getCurrentState(Parameter1: State)</text></g></g><g transform="translate(-86,-86) scale(1,1)"><path fill="none" stroke="#000000" d="M 208 280 L 208 226" stroke-miterlimit="10"/></g><g transform="translate(-86,-86) scale(1,1)"><path fill="#000000" stroke="none" d="M 212.209517756016 236.16267485762415 L 208 226 L 203.790482243984 236.16267485762415 L 208 248"/></g><g transform="translate(-86,-86) scale(1,1)"><path fill="none" stroke="#000000" d="M 212.209517756016 236.16267485762415 L 208 226 L 203.790482243984 236.16267485762415 L 208 248 L 212.209517756016 236.16267485762415" stroke-miterlimit="10"/></g><g transform="translate(-86,-86) scale(1,1)"><path fill="none" stroke="#000000" d="M 319 363 L 384 363" stroke-miterlimit="10"/></g><g transform="translate(-86,-86) scale(1,1)"><path fill="#000000" stroke="none" d="M 373.83732514237585 367.209517756016 L 384 363 L 373.83732514237585 358.790482243984 L 362 363"/></g><g transform="translate(-86,-86) scale(1,1)"><path fill="none" stroke="#000000" d="M 373.83732514237585 367.209517756016 L 384 363 L 373.83732514237585 358.790482243984 L 362 363 L 373.83732514237585 367.209517756016" stroke-miterlimit="10"/></g><g transform="translate(-86,-86) scale(1,1)"><path fill="none" stroke="#000000" d="M 319 400 L 691 400 L 691 337" stroke-miterlimit="10"/></g><g transform="translate(-86,-86) scale(1,1)"><path fill="#000000" stroke="none" d="M 695.209517756016 347.16267485762415 L 691 337 L 686.790482243984 347.16267485762415 L 691 359"/></g><g transform="translate(-86,-86) scale(1,1)"><path fill="none" stroke="#000000" d="M 695.209517756016 347.16267485762415 L 691 337 L 686.790482243984 347.16267485762415 L 691 359 L 695.209517756016 347.16267485762415" stroke-miterlimit="10"/></g><g transform="translate(-86,-86) scale(1,1)"><path fill="none" stroke="#000000" d="M 319 432 L 927 432 L 927 380" stroke-miterlimit="10"/></g><g transform="translate(-86,-86) scale(1,1)"><path fill="#000000" stroke="none" d="M 931.209517756016 390.16267485762415 L 927 380 L 922.790482243984 390.16267485762415 L 927 402"/></g><g transform="translate(-86,-86) scale(1,1)"><path fill="none" stroke="#000000" d="M 931.209517756016 390.16267485762415 L 927 380 L 922.790482243984 390.16267485762415 L 927 402 L 931.209517756016 390.16267485762415" stroke-miterlimit="10"/></g></g></svg>