<svg version="1.1" xmlns="http://www.w3.org/2000/svg" xmlns:xlink="http://www.w3.org/1999/xlink" width="861" height="885"><defs/><g><g transform="translate(-126,-102) scale(1,1)"><rect fill="#C0C0C0" stroke="none" x="143" y="287" width="752.970703125" height="70" opacity="0.2"/></g><g transform="translate(-126,-102) scale(1,1)"><rect fill="#ffffff" stroke="none" x="136" y="280" width="752.970703125" height="70"/></g><g transform="translate(-126,-102) scale(1,1)"><path fill="none" stroke="#000000" d="M 136 280 L 888.970703125 280 L 888.970703125 350 L 136 350 L 136 280 Z Z" stroke-miterlimit="10"/></g><g transform="translate(-126,-102) scale(1,1)"><path fill="none" stroke="#000000" d="M 136 318 L 888.970703125 318" stroke-miterlimit="10"/></g><g transform="translate(-126,-102) scale(1,1)"><path fill="none" stroke="#000000" d="M 136 328 L 888.970703125 328" stroke-miterlimit="10"/></g><g transform="translate(-126,-102) scale(1,1)"><g><path fill="none" stroke="none"/><text fill="#000000" stroke="none" font-family="Arial" font-size="13px" font-style="normal" font-weight="normal" text-decoration="none" x="479.963134765625" y="297.5">«Interface»</text></g></g><g transform="translate(-126,-102) scale(1,1)"><g><path fill="none" stroke="none"/><text fill="#000000" stroke="none" font-family="Arial" font-size="13px" font-style="normal" font-weight="bold" text-decoration="none" x="488.278564453125" y="312.5">Strategy</text></g></g><g transform="translate(-126,-102) scale(1,1)"><g><path fill="none" stroke="none"/><text fill="#000000" stroke="none" font-family="Arial" font-size="13px" font-style="normal" font-weight="normal" text-decoration="none" x="141" y="345.5">+move(agent: Agent, targets: List&lt;PositionAgent&gt;, friends: List&lt;PositionAgent&gt;, enemies: List&lt;PositionAgent&gt;, walls: boolean[][])</text></g></g><g transform="translate(-126,-102) scale(1,1)"><rect fill="#C0C0C0" stroke="none" x="143" y="367" width="752.970703125" height="70" opacity="0.2"/></g><g transform="translate(-126,-102) scale(1,1)"><rect fill="#ffffff" stroke="none" x="136" y="360" width="752.970703125" height="70"/></g><g transform="translate(-126,-102) scale(1,1)"><path fill="none" stroke="#000000" d="M 136 360 L 888.970703125 360 L 888.970703125 430 L 136 430 L 136 360 Z Z" stroke-miterlimit="10"/></g><g transform="translate(-126,-102) scale(1,1)"><path fill="none" stroke="#000000" d="M 136 385 L 888.970703125 385" stroke-miterlimit="10"/></g><g transform="translate(-126,-102) scale(1,1)"><path fill="none" stroke="#000000" d="M 136 408 L 888.970703125 408" stroke-miterlimit="10"/></g><g transform="translate(-126,-102) scale(1,1)"><g><path fill="none" stroke="none"/><text fill="#000000" stroke="none" font-family="Arial" font-size="13px" font-style="normal" font-weight="bold" text-decoration="none" x="463.7099609375" y="379.5">RandomStrategy</text></g></g><g transform="translate(-126,-102) scale(1,1)"><g><path fill="none" stroke="none"/><text fill="#000000" stroke="none" font-family="Arial" font-size="13px" font-style="normal" font-weight="normal" text-decoration="none" x="141" y="402.5">-random: Random</text></g></g><g transform="translate(-126,-102) scale(1,1)"><g><path fill="none" stroke="none"/><text fill="#000000" stroke="none" font-family="Arial" font-size="13px" font-style="normal" font-weight="normal" text-decoration="none" x="141" y="425.5">+move(agent: Agent, targets: List&lt;PositionAgent&gt;, friends: List&lt;PositionAgent&gt;, enemies: List&lt;PositionAgent&gt;, walls: boolean[][])</text></g></g><g transform="translate(-126,-102) scale(1,1)"><rect fill="#C0C0C0" stroke="none" x="143" y="447" width="752.970703125" height="57" opacity="0.2"/></g><g transform="translate(-126,-102) scale(1,1)"><rect fill="#ffffff" stroke="none" x="136" y="440" width="752.970703125" height="57"/></g><g transform="translate(-126,-102) scale(1,1)"><path fill="none" stroke="#000000" d="M 136 440 L 888.970703125 440 L 888.970703125 497 L 136 497 L 136 440 Z Z" stroke-miterlimit="10"/></g><g transform="translate(-126,-102) scale(1,1)"><path fill="none" stroke="#000000" d="M 136 465 L 888.970703125 465" stroke-miterlimit="10"/></g><g transform="translate(-126,-102) scale(1,1)"><path fill="none" stroke="#000000" d="M 136 475 L 888.970703125 475" stroke-miterlimit="10"/></g><g transform="translate(-126,-102) scale(1,1)"><g><path fill="none" stroke="none"/><text fill="#000000" stroke="none" font-family="Arial" font-size="13px" font-style="normal" font-weight="bold" text-decoration="none" x="469.8544921875" y="459.5">PlayerStrategy</text></g></g><g transform="translate(-126,-102) scale(1,1)"><g><path fill="none" stroke="none"/><text fill="#000000" stroke="none" font-family="Arial" font-size="13px" font-style="normal" font-weight="normal" text-decoration="none" x="141" y="492.5">+move(agent: Agent, targets: List&lt;PositionAgent&gt;, friends: List&lt;PositionAgent&gt;, enemies: List&lt;PositionAgent&gt;, walls: boolean[][])</text></g></g><g transform="translate(-126,-102) scale(1,1)"><path fill="none" stroke="#000000" d="M 889 464 L 936 464 L 936 320 L 889 320" stroke-miterlimit="10"/></g><g transform="translate(-126,-102) scale(1,1)"><path fill="#FFFFFF" stroke="none" d="M 899.1626748576241 315.790482243984 L 889 320 L 899.1626748576241 324.209517756016 L 911 320"/></g><g transform="translate(-126,-102) scale(1,1)"><path fill="none" stroke="#000000" d="M 899.1626748576241 315.790482243984 L 889 320 L 899.1626748576241 324.209517756016 L 911 320 L 899.1626748576241 315.790482243984" stroke-miterlimit="10"/></g><g transform="translate(-126,-102) scale(1,1)"><rect fill="#C0C0C0" stroke="none" x="143" y="511" width="752.970703125" height="57" opacity="0.2"/></g><g transform="translate(-126,-102) scale(1,1)"><rect fill="#ffffff" stroke="none" x="136" y="504" width="752.970703125" height="57"/></g><g transform="translate(-126,-102) scale(1,1)"><path fill="none" stroke="#000000" d="M 136 504 L 888.970703125 504 L 888.970703125 561 L 136 561 L 136 504 Z Z" stroke-miterlimit="10"/></g><g transform="translate(-126,-102) scale(1,1)"><path fill="none" stroke="#000000" d="M 136 529 L 888.970703125 529" stroke-miterlimit="10"/></g><g transform="translate(-126,-102) scale(1,1)"><path fill="none" stroke="#000000" d="M 136 539 L 888.970703125 539" stroke-miterlimit="10"/></g><g transform="translate(-126,-102) scale(1,1)"><g><path fill="none" stroke="none"/><text fill="#000000" stroke="none" font-family="Arial" font-size="13px" font-style="normal" font-weight="bold" text-decoration="none" x="472.739501953125" y="523.5">NoneStrategy</text></g></g><g transform="translate(-126,-102) scale(1,1)"><g><path fill="none" stroke="none"/><text fill="#000000" stroke="none" font-family="Arial" font-size="13px" font-style="normal" font-weight="normal" text-decoration="none" x="141" y="556.5">+move(agent: Agent, targets: List&lt;PositionAgent&gt;, friends: List&lt;PositionAgent&gt;, enemies: List&lt;PositionAgent&gt;, walls: boolean[][])</text></g></g><g transform="translate(-126,-102) scale(1,1)"><path fill="none" stroke="#000000" d="M 889 536 L 944 536 L 944 312 L 889 312" stroke-miterlimit="10"/></g><g transform="translate(-126,-102) scale(1,1)"><path fill="#FFFFFF" stroke="none" d="M 899.1626748576241 307.790482243984 L 889 312 L 899.1626748576241 316.209517756016 L 911 312"/></g><g transform="translate(-126,-102) scale(1,1)"><path fill="none" stroke="#000000" d="M 899.1626748576241 307.790482243984 L 889 312 L 899.1626748576241 316.209517756016 L 911 312 L 899.1626748576241 307.790482243984" stroke-miterlimit="10"/></g><g transform="translate(-126,-102) scale(1,1)"><rect fill="#C0C0C0" stroke="none" x="143" y="575" width="752.970703125" height="72" opacity="0.2"/></g><g transform="translate(-126,-102) scale(1,1)"><rect fill="#ffffff" stroke="none" x="136" y="568" width="752.970703125" height="72"/></g><g transform="translate(-126,-102) scale(1,1)"><path fill="none" stroke="#000000" d="M 136 568 L 888.970703125 568 L 888.970703125 640 L 136 640 L 136 568 Z Z" stroke-miterlimit="10"/></g><g transform="translate(-126,-102) scale(1,1)"><path fill="none" stroke="#000000" d="M 136 593 L 888.970703125 593" stroke-miterlimit="10"/></g><g transform="translate(-126,-102) scale(1,1)"><path fill="none" stroke="#000000" d="M 136 603 L 888.970703125 603" stroke-miterlimit="10"/></g><g transform="translate(-126,-102) scale(1,1)"><g><path fill="none" stroke="none"/><text fill="#000000" stroke="none" font-family="Arial" font-size="13px" font-style="normal" font-weight="bold" text-decoration="none" x="447.456787109375" y="587.5">NearestAttackStrategy</text></g></g><g transform="translate(-126,-102) scale(1,1)"><g><path fill="none" stroke="none"/><text fill="#000000" stroke="none" font-family="Arial" font-size="13px" font-style="normal" font-weight="normal" text-decoration="none" x="141" y="620.5">+move(agent: Agent, targets: List&lt;PositionAgent&gt;, friends: List&lt;PositionAgent&gt;, enemies: List&lt;PositionAgent&gt;, walls: boolean[][])</text></g></g><g transform="translate(-126,-102) scale(1,1)"><g><path fill="none" stroke="none"/><text fill="#000000" stroke="none" font-family="Arial" font-size="13px" font-style="normal" font-weight="normal" text-decoration="none" x="141" y="635.5">-nearest(position: PositionAgent, targets: PositionAgent)</text></g></g><g transform="translate(-126,-102) scale(1,1)"><path fill="none" stroke="#000000" d="M 889 592 L 952 592 L 952 304 L 889 304" stroke-miterlimit="10"/></g><g transform="translate(-126,-102) scale(1,1)"><path fill="#FFFFFF" stroke="none" d="M 899.1626748576241 299.790482243984 L 889 304 L 899.1626748576241 308.209517756016 L 911 304"/></g><g transform="translate(-126,-102) scale(1,1)"><path fill="none" stroke="#000000" d="M 899.1626748576241 299.790482243984 L 889 304 L 899.1626748576241 308.209517756016 L 911 304 L 899.1626748576241 299.790482243984" stroke-miterlimit="10"/></g><g transform="translate(-126,-102) scale(1,1)"><rect fill="#C0C0C0" stroke="none" x="143" y="655" width="752.970703125" height="57" opacity="0.2"/></g><g transform="translate(-126,-102) scale(1,1)"><rect fill="#ffffff" stroke="none" x="136" y="648" width="752.970703125" height="57"/></g><g transform="translate(-126,-102) scale(1,1)"><path fill="none" stroke="#000000" d="M 136 648 L 888.970703125 648 L 888.970703125 705 L 136 705 L 136 648 Z Z" stroke-miterlimit="10"/></g><g transform="translate(-126,-102) scale(1,1)"><path fill="none" stroke="#000000" d="M 136 673 L 888.970703125 673" stroke-miterlimit="10"/></g><g transform="translate(-126,-102) scale(1,1)"><path fill="none" stroke="#000000" d="M 136 683 L 888.970703125 683" stroke-miterlimit="10"/></g><g transform="translate(-126,-102) scale(1,1)"><g><path fill="none" stroke="none"/><text fill="#000000" stroke="none" font-family="Arial" font-size="13px" font-style="normal" font-weight="bold" text-decoration="none" x="463.595703125" y="667.5">TrackingStrategy</text></g></g><g transform="translate(-126,-102) scale(1,1)"><g><path fill="none" stroke="none"/><text fill="#000000" stroke="none" font-family="Arial" font-size="13px" font-style="normal" font-weight="normal" text-decoration="none" x="141" y="700.5">+move(agent: Agent, targets: List&lt;PositionAgent&gt;, friends: List&lt;PositionAgent&gt;, enemies: List&lt;PositionAgent&gt;, walls: boolean[][])</text></g></g><g transform="translate(-126,-102) scale(1,1)"><path fill="none" stroke="#000000" d="M 889 672 L 960 672 L 960 296 L 889 296" stroke-miterlimit="10"/></g><g transform="translate(-126,-102) scale(1,1)"><path fill="#FFFFFF" stroke="none" d="M 899.1626748576241 291.790482243984 L 889 296 L 899.1626748576241 300.209517756016 L 911 296"/></g><g transform="translate(-126,-102) scale(1,1)"><path fill="none" stroke="#000000" d="M 899.1626748576241 291.790482243984 L 889 296 L 899.1626748576241 300.209517756016 L 911 296 L 899.1626748576241 291.790482243984" stroke-miterlimit="10"/></g><g transform="translate(-126,-102) scale(1,1)"><rect fill="#C0C0C0" stroke="none" x="143" y="719" width="752.970703125" height="72" opacity="0.2"/></g><g transform="translate(-126,-102) scale(1,1)"><rect fill="#ffffff" stroke="none" x="136" y="712" width="752.970703125" height="72"/></g><g transform="translate(-126,-102) scale(1,1)"><path fill="none" stroke="#000000" d="M 136 712 L 888.970703125 712 L 888.970703125 784 L 136 784 L 136 712 Z Z" stroke-miterlimit="10"/></g><g transform="translate(-126,-102) scale(1,1)"><path fill="none" stroke="#000000" d="M 136 737 L 888.970703125 737" stroke-miterlimit="10"/></g><g transform="translate(-126,-102) scale(1,1)"><path fill="none" stroke="#000000" d="M 136 747 L 888.970703125 747" stroke-miterlimit="10"/></g><g transform="translate(-126,-102) scale(1,1)"><g><path fill="none" stroke="none"/><text fill="#000000" stroke="none" font-family="Arial" font-size="13px" font-style="normal" font-weight="bold" text-decoration="none" x="466.59814453125" y="731.5">EscapeStrategy</text></g></g><g transform="translate(-126,-102) scale(1,1)"><g><path fill="none" stroke="none"/><text fill="#000000" stroke="none" font-family="Arial" font-size="13px" font-style="normal" font-weight="normal" text-decoration="none" x="141" y="764.5">+move(agent: Agent, targets: List&lt;PositionAgent&gt;, friends: List&lt;PositionAgent&gt;, enemies: List&lt;PositionAgent&gt;, walls: boolean[][])</text></g></g><g transform="translate(-126,-102) scale(1,1)"><g><path fill="none" stroke="none"/><text fill="#000000" stroke="none" font-family="Arial" font-size="13px" font-style="normal" font-weight="normal" text-decoration="none" x="141" y="779.5">-averageDistanceEnemies(position: PositionAgent, enemies: List&lt;PositionAgent&gt;)</text></g></g><g transform="translate(-126,-102) scale(1,1)"><path fill="none" stroke="#000000" d="M 889 736 L 968 736 L 968 288 L 889 288" stroke-miterlimit="10"/></g><g transform="translate(-126,-102) scale(1,1)"><path fill="#FFFFFF" stroke="none" d="M 899.1626748576241 283.790482243984 L 889 288 L 899.1626748576241 292.209517756016 L 911 288"/></g><g transform="translate(-126,-102) scale(1,1)"><path fill="none" stroke="#000000" d="M 899.1626748576241 283.790482243984 L 889 288 L 899.1626748576241 292.209517756016 L 911 288 L 899.1626748576241 283.790482243984" stroke-miterlimit="10"/></g><g transform="translate(-126,-102) scale(1,1)"><rect fill="#C0C0C0" stroke="none" x="143" y="799" width="798.85791015625" height="57" opacity="0.2"/></g><g transform="translate(-126,-102) scale(1,1)"><rect fill="#ffffff" stroke="none" x="136" y="792" width="798.85791015625" height="57"/></g><g transform="translate(-126,-102) scale(1,1)"><path fill="none" stroke="#000000" d="M 136 792 L 934.85791015625 792 L 934.85791015625 849 L 136 849 L 136 792 Z Z" stroke-miterlimit="10"/></g><g transform="translate(-126,-102) scale(1,1)"><path fill="none" stroke="#000000" d="M 136 817 L 934.85791015625 817" stroke-miterlimit="10"/></g><g transform="translate(-126,-102) scale(1,1)"><path fill="none" stroke="#000000" d="M 136 827 L 934.85791015625 827" stroke-miterlimit="10"/></g><g transform="translate(-126,-102) scale(1,1)"><g><path fill="none" stroke="none"/><text fill="#000000" stroke="none" font-family="Arial" font-size="13px" font-style="italic" font-weight="bold" text-decoration="none" x="496.05126953125" y="811.5">AstarStrategy</text></g></g><g transform="translate(-126,-102) scale(1,1)"><g><path fill="none" stroke="none"/><text fill="#000000" stroke="none" font-family="Arial" font-size="13px" font-style="normal" font-weight="normal" text-decoration="none" x="141" y="844.5">#findPath(start: PositionAgent, goals: List&lt;PositionAgent&gt;, friends: List&lt;PositionAgent&gt;, enemies: List&lt;PositionAgent&gt;, walls: boolean[][])</text></g></g><g transform="translate(-126,-102) scale(1,1)"><path fill="none" stroke="#000000" d="M 935 820 L 976 820 L 976 280 L 889 280" stroke-miterlimit="10"/></g><g transform="translate(-126,-102) scale(1,1)"><path fill="#FFFFFF" stroke="none" d="M 899.1626748576241 275.790482243984 L 889 280 L 899.1626748576241 284.209517756016 L 911 280"/></g><g transform="translate(-126,-102) scale(1,1)"><path fill="none" stroke="#000000" d="M 899.1626748576241 275.790482243984 L 889 280 L 899.1626748576241 284.209517756016 L 911 280 L 899.1626748576241 275.790482243984" stroke-miterlimit="10"/></g><g transform="translate(-126,-102) scale(1,1)"><rect fill="#C0C0C0" stroke="none" x="143" y="863" width="752.970703125" height="57" opacity="0.2"/></g><g transform="translate(-126,-102) scale(1,1)"><rect fill="#ffffff" stroke="none" x="136" y="856" width="752.970703125" height="57"/></g><g transform="translate(-126,-102) scale(1,1)"><path fill="none" stroke="#000000" d="M 136 856 L 888.970703125 856 L 888.970703125 913 L 136 913 L 136 856 Z Z" stroke-miterlimit="10"/></g><g transform="translate(-126,-102) scale(1,1)"><path fill="none" stroke="#000000" d="M 136 881 L 888.970703125 881" stroke-miterlimit="10"/></g><g transform="translate(-126,-102) scale(1,1)"><path fill="none" stroke="#000000" d="M 136 891 L 888.970703125 891" stroke-miterlimit="10"/></g><g transform="translate(-126,-102) scale(1,1)"><g><path fill="none" stroke="none"/><text fill="#000000" stroke="none" font-family="Arial" font-size="13px" font-style="normal" font-weight="bold" text-decoration="none" x="455.04541015625" y="875.5">AstarAttackStrategy</text></g></g><g transform="translate(-126,-102) scale(1,1)"><g><path fill="none" stroke="none"/><text fill="#000000" stroke="none" font-family="Arial" font-size="13px" font-style="normal" font-weight="normal" text-decoration="none" x="141" y="908.5">+move(agent: Agent, targets: List&lt;PositionAgent&gt;, friends: List&lt;PositionAgent&gt;, enemies: List&lt;PositionAgent&gt;, walls: boolean[][])</text></g></g><g transform="translate(-126,-102) scale(1,1)"><rect fill="#C0C0C0" stroke="none" x="143" y="927" width="752.970703125" height="57" opacity="0.2"/></g><g transform="translate(-126,-102) scale(1,1)"><rect fill="#ffffff" stroke="none" x="136" y="920" width="752.970703125" height="57"/></g><g transform="translate(-126,-102) scale(1,1)"><path fill="none" stroke="#000000" d="M 136 920 L 888.970703125 920 L 888.970703125 977 L 136 977 L 136 920 Z Z" stroke-miterlimit="10"/></g><g transform="translate(-126,-102) scale(1,1)"><path fill="none" stroke="#000000" d="M 136 945 L 888.970703125 945" stroke-miterlimit="10"/></g><g transform="translate(-126,-102) scale(1,1)"><path fill="none" stroke="#000000" d="M 136 955 L 888.970703125 955" stroke-miterlimit="10"/></g><g transform="translate(-126,-102) scale(1,1)"><g><path fill="none" stroke="none"/><text fill="#000000" stroke="none" font-family="Arial" font-size="13px" font-style="normal" font-weight="bold" text-decoration="none" x="451.42724609375" y="939.5">AstarEscapeStrategy</text></g></g><g transform="translate(-126,-102) scale(1,1)"><g><path fill="none" stroke="none"/><text fill="#000000" stroke="none" font-family="Arial" font-size="13px" font-style="normal" font-weight="normal" text-decoration="none" x="141" y="972.5">+move(agent: Agent, targets: List&lt;PositionAgent&gt;, friends: List&lt;PositionAgent&gt;, enemies: List&lt;PositionAgent&gt;, walls: boolean[][])</text></g></g><g transform="translate(-126,-102) scale(1,1)"><path fill="none" stroke="#000000" d="M 889 944 L 976 944 L 976 840 L 935 840" stroke-miterlimit="10"/></g><g transform="translate(-126,-102) scale(1,1)"><path fill="#FFFFFF" stroke="none" d="M 945.1626748576241 835.790482243984 L 935 840 L 945.1626748576241 844.209517756016 L 957 840"/></g><g transform="translate(-126,-102) scale(1,1)"><path fill="none" stroke="#000000" d="M 945.1626748576241 835.790482243984 L 935 840 L 945.1626748576241 844.209517756016 L 957 840 L 945.1626748576241 835.790482243984" stroke-miterlimit="10"/></g><g transform="translate(-126,-102) scale(1,1)"><path fill="none" stroke="#000000" d="M 889 880 L 968 880 L 968 849 L 935 849" stroke-miterlimit="10"/></g><g transform="translate(-126,-102) scale(1,1)"><path fill="#FFFFFF" stroke="none" d="M 945.1626748576241 844.790482243984 L 935 849 L 945.1626748576241 853.209517756016 L 957 849"/></g><g transform="translate(-126,-102) scale(1,1)"><path fill="none" stroke="#000000" d="M 945.1626748576241 844.790482243984 L 935 849 L 945.1626748576241 853.209517756016 L 957 849 L 945.1626748576241 844.790482243984" stroke-miterlimit="10"/></g><g transform="translate(-126,-102) scale(1,1)"><path fill="none" stroke="#000000" d="M 889 384 L 928 384 L 928 328 L 889 328" stroke-miterlimit="10"/></g><g transform="translate(-126,-102) scale(1,1)"><path fill="#FFFFFF" stroke="none" d="M 899.1626748576241 323.790482243984 L 889 328 L 899.1626748576241 332.209517756016 L 911 328"/></g><g transform="translate(-126,-102) scale(1,1)"><path fill="none" stroke="#000000" d="M 899.1626748576241 323.790482243984 L 889 328 L 899.1626748576241 332.209517756016 L 911 328 L 899.1626748576241 323.790482243984" stroke-miterlimit="10"/></g><g transform="translate(-126,-102) scale(1,1)"><rect fill="#C0C0C0" stroke="none" x="143" y="119" width="379.0810546875" height="160" opacity="0.2"/></g><g transform="translate(-126,-102) scale(1,1)"><rect fill="#ffffff" stroke="none" x="136" y="112" width="379.0810546875" height="160"/></g><g transform="translate(-126,-102) scale(1,1)"><path fill="none" stroke="#000000" d="M 136 112 L 515.0810546875 112 L 515.0810546875 272 L 136 272 L 136 112 Z Z" stroke-miterlimit="10"/></g><g transform="translate(-126,-102) scale(1,1)"><path fill="none" stroke="#000000" d="M 136 137 L 515.0810546875 137" stroke-miterlimit="10"/></g><g transform="translate(-126,-102) scale(1,1)"><path fill="none" stroke="#000000" d="M 136 205 L 515.0810546875 205" stroke-miterlimit="10"/></g><g transform="translate(-126,-102) scale(1,1)"><g><path fill="none" stroke="none"/><text fill="#000000" stroke="none" font-family="Arial" font-size="13px" font-style="normal" font-weight="bold" text-decoration="none" x="308.55419921875" y="131.5">Agent</text></g></g><g transform="translate(-126,-102) scale(1,1)"><g><path fill="none" stroke="none"/><text fill="#000000" stroke="none" font-family="Arial" font-size="13px" font-style="normal" font-weight="normal" text-decoration="none" x="141" y="154.5">-lifeStrategy: Strategy</text></g></g><g transform="translate(-126,-102) scale(1,1)"><g><path fill="none" stroke="none"/><text fill="#000000" stroke="none" font-family="Arial" font-size="13px" font-style="normal" font-weight="normal" text-decoration="none" x="141" y="169.5">-vunerableStrategy: Strategy</text></g></g><g transform="translate(-126,-102) scale(1,1)"><g><path fill="none" stroke="none"/><text fill="#000000" stroke="none" font-family="Arial" font-size="13px" font-style="normal" font-weight="normal" text-decoration="none" x="141" y="184.5">-deathStrategy: Strategy</text></g></g><g transform="translate(-126,-102) scale(1,1)"><g><path fill="none" stroke="none"/><text fill="#000000" stroke="none" font-family="Arial" font-size="13px" font-style="normal" font-weight="normal" text-decoration="none" x="141" y="199.5">-currentStrategy: Strategy</text></g></g><g transform="translate(-126,-102) scale(1,1)"><g><path fill="none" stroke="none"/><text fill="#000000" stroke="none" font-family="Arial" font-size="13px" font-style="normal" font-weight="normal" text-decoration="none" x="141" y="222.5">+setStrategy(lifeStrategy: Strategy, vunerableStrategy: Strategy)</text></g></g><g transform="translate(-126,-102) scale(1,1)"><g><path fill="none" stroke="none"/><text fill="#000000" stroke="none" font-family="Arial" font-size="13px" font-style="normal" font-weight="normal" text-decoration="none" x="141" y="237.5">+switchLifeStrategy()</text></g></g><g transform="translate(-126,-102) scale(1,1)"><g><path fill="none" stroke="none"/><text fill="#000000" stroke="none" font-family="Arial" font-size="13px" font-style="normal" font-weight="normal" text-decoration="none" x="141" y="252.5">+switchVunerableStrategy()</text></g></g><g transform="translate(-126,-102) scale(1,1)"><g><path fill="none" stroke="none"/><text fill="#000000" stroke="none" font-family="Arial" font-size="13px" font-style="normal" font-weight="normal" text-decoration="none" x="141" y="267.5">+switchDeathStrategy()</text></g></g><g transform="translate(-126,-102) scale(1,1)"><path fill="none" stroke="#000000" d="M 515 128 L 656 128 L 656 280" stroke-miterlimit="10"/></g><g transform="translate(-126,-102) scale(1,1)"><path fill="#000000" stroke="none" d="M 651.790482243984 269.83732514237585 L 656 280 L 660.209517756016 269.83732514237585 L 656 258"/></g><g transform="translate(-126,-102) scale(1,1)"><path fill="none" stroke="#000000" d="M 651.790482243984 269.83732514237585 L 656 280 L 660.209517756016 269.83732514237585 L 656 258 L 651.790482243984 269.83732514237585" stroke-miterlimit="10"/></g></g></svg>